<svg width="185" height="151" viewBox="0 0 185 151" fill="none" xmlns="http://www.w3.org/2000/svg">
<path d="M85.9154 12.8513C85.6971 14.5648 85.2639 16.1638 84.9983 16.4294C84.7493 16.6128 85.0787 16.6427 85.7542 16.4113C86.8249 16.0892 86.7666 16.3227 85.342 18.1341C83.8019 20.097 83.4423 20.3454 80.2094 21.0839C76.7022 21.8605 76.629 21.8599 73.9713 24.9277C70.8413 28.4942 70.5078 29.6083 71.7088 31.1669C72.4379 32.1077 72.7291 32.1717 73.2413 31.3227C76.1638 26.1206 80.1072 21.8765 80.187 23.4167C80.2426 23.7954 79.7412 24.4625 79.2021 24.8776C78.2202 25.6295 78.2594 25.6854 79.9985 25.6033C80.9751 25.5484 82.648 25.2692 83.6864 24.9816C84.32 24.8163 84.9514 24.6468 85.5802 24.473C84.9891 25.5121 84.4055 26.5571 83.8289 27.6068C82.8694 29.3589 81.4197 31.5712 80.6202 32.5404C79.7717 33.5478 79.2259 34.5272 79.4064 34.7361C79.8787 35.284 82.1111 34.5386 83.3561 33.4248C83.9582 32.8915 85.3342 32.2992 86.4065 32.0092C88.2528 31.5582 88.4239 31.3765 88.4201 30.4542C88.4213 29.2547 91.3606 27.1603 91.3919 28.205C91.3997 28.5803 90.8412 29.1607 90.1058 29.6404C88.3019 30.691 89.0291 31.1286 91.4697 30.3784C92.5889 30.0321 93.8137 29.786 94.151 29.9522C94.5637 30.1076 94.4944 30.3006 93.9103 30.5017C93.4771 30.6796 91.8775 32.0517 90.4071 33.5559C88.3076 35.7432 87.4627 36.3896 85.8499 36.6766C83.2691 37.2912 75.6841 34.5534 74.9594 32.786C74.4631 31.7762 74.1739 31.7051 73.1555 32.5128C71.8127 33.5222 67.3952 41.6331 67.9101 42.2275C68.069 42.4168 70.2573 41.4604 72.7992 40.0516C77.0207 37.751 79.9396 36.379 78.8221 37.4497C78.5439 37.6961 76.3647 38.9693 73.9368 40.2313C71.5099 41.4955 69.41 42.5613 69.3635 42.6021C69.2694 42.6821 69.8086 43.0282 70.6048 43.3753C71.362 43.6789 72.9165 43.6557 74.0485 43.3379C76.4663 42.6137 80.6669 43.4719 82.2347 44.9738C82.852 45.5759 83.8786 46.1171 84.5923 46.2673C86.408 46.5823 86.0611 47.0155 82.8677 48.463C81.8949 48.8866 80.9129 49.2975 79.9221 49.6959C80.6199 50.1544 81.3184 50.5992 82.0173 51.03C83.1273 51.7735 83.9946 52.4205 83.8356 52.6107C83.7151 52.7517 82.5694 52.6784 81.2385 52.4069C79.8685 52.1048 77.9338 52.0758 76.9539 52.3385C74.3681 53.0518 70.9132 52.0761 69.0882 50.1011C67.6924 48.5915 67.1424 48.4318 64.4556 48.7483C63.4392 48.87 62.4175 48.9802 61.3911 49.0795C60.5323 50.329 59.6819 51.5858 58.8401 52.8502C56.031 57.071 55.1011 59.3673 56.5246 58.1761C57.4979 57.3187 60.4294 58.0792 61.7408 59.4419C62.2549 59.9828 63.1765 61.6393 63.7681 63.0834C64.1572 63.9858 64.5589 64.8865 64.973 65.7843C64.0137 65.5343 63.0525 65.2694 62.0905 64.9907C59.8266 64.4106 58.7877 63.6231 57.2814 61.6591C55.3551 59.1283 55.3292 59.1503 54.4591 60.5045C53.9569 61.2414 52.8454 64.0745 52.0526 66.755C51.2085 69.4729 50.3309 71.9392 50.0641 72.198C49.2631 72.9613 50.5666 73.9122 54.4572 75.0795C56.9901 75.8701 58.0509 75.8092 58.2317 75.0571C58.64 73.16 61.8153 70.459 64.5045 69.4752C66.6137 68.7125 66.974 68.6956 66.5308 69.625C66.1849 70.2272 65.9787 71.5285 66.078 72.509C66.1734 73.4876 66.0037 75.038 65.5821 75.8932C65.1747 76.8414 64.9909 77.651 65.1058 77.7448C65.2775 77.8855 66.78 78.3941 68.4169 78.7945C71.9478 79.6911 71.9391 80.1133 68.2556 81.0824C64.9899 81.9754 60.6713 80.7083 59.4309 78.6204C58.6924 77.4806 57.6252 76.8717 55.0941 76.1958C53.2234 75.7159 50.9896 74.9881 50.1768 74.6948C48.8077 74.1897 48.7562 74.3241 49.4646 76.5186C49.8754 77.8913 51.198 80.5492 52.5724 82.5384C53.3435 83.738 54.1399 84.9323 54.9626 86.1199C61.5404 88.3627 68.2128 90.0426 74.8049 91.0382C76.5506 90.1178 78.2662 89.1622 79.9403 88.167C83.247 86.2721 87.0527 84.5919 90.8817 83.2377C92.8338 82.533 94.7199 81.7583 96.5693 80.9323C96.3519 80.0415 96.1509 79.1521 95.9663 78.2643C95.3105 74.7404 96.1483 72.0392 98.4678 68.9552C100.232 66.5649 101.654 65.6945 100.838 67.6318C100.643 68.0868 100.674 68.5707 100.926 68.6762C101.056 68.7307 101.325 69.1464 101.628 69.7307C101.636 69.9923 101.646 70.3032 101.66 70.6383C101.726 72.6842 101.479 75.3383 98.7265 78.9185C97.9017 80.0106 97.1864 80.9527 96.9369 81.4182C96.8772 81.521 96.8444 81.6012 96.842 81.6547C96.8379 81.6893 96.8457 81.7114 96.8661 81.7196C97.4404 81.9511 99.4726 80.6575 102.104 76.5971C102.926 75.3169 103.662 73.9969 104.327 72.6507C104.225 71.784 104.156 70.9182 104.122 70.0552C104.006 66.9531 105.223 63.4106 106.177 59.2295C106.38 58.3614 106.564 57.489 106.732 56.6137C106.697 57.3352 106.671 58.0574 106.655 58.7801C106.625 59.9568 106.675 62.1307 106.815 63.4994C107.02 65.9769 107.185 66.3275 105.402 71.1526C104.351 73.9235 102.556 77.2092 101.577 78.4448C100.192 80.3507 99.9004 80.7757 100.531 80.9346C101.818 81.2561 104.368 78.6938 106.311 73.4469C107.376 70.7107 108.051 68.8394 108.065 69.3357C108.067 69.8924 108.324 69.7056 108.641 68.7692C109.366 66.7044 110.656 65.6166 113.24 65.227C113.971 65.1336 114.736 65.024 115.53 64.8995C115.297 65.5832 115.062 66.2653 114.825 66.9458C114.428 68.0675 113.58 69.6166 112.957 70.3087C111.611 71.8733 108.011 72.338 108.078 71.006C108.069 70.634 107.505 72.0672 106.67 74.2667C105.846 76.471 104.637 78.6677 104.181 79.1752C102.998 80.4291 103.465 80.6058 107.341 79.0461C111.17 77.408 114.251 75.0405 116.538 72.5059C118.447 70.2583 119.006 71.1615 117.161 73.7233C115.905 75.5392 116.194 75.8363 119.174 75.0815C120.865 74.5884 120.56 75.1711 117.754 77.45C115.751 79.0163 114.664 79.4611 113.132 79.3116C109.804 78.7256 109.404 79.8204 100.122 81.9813C98.9631 82.1723 97.7035 82.5602 96.2854 83.0415C91.3265 84.2253 85.3935 86.8291 80.4438 90.3586C78.7566 91.5531 76.6854 92.6517 75.9579 92.8002C75.1332 92.9674 70.3723 92.2762 65.4139 90.8007C58.8177 88.8137 56.548 88.0499 57.186 89.0043C58.8756 91.3923 62.8447 94.0927 68.762 96.025C72.0414 97.0984 75.5495 98.2701 76.429 98.7381C78.0374 99.6505 80.9577 105.392 80.4169 106.684C80.261 107.021 80.4505 107.859 80.9439 108.488C81.6581 109.485 82.0044 109.363 83.072 108.208C83.7047 107.403 84.8508 106.681 85.5444 106.565C85.8323 106.514 86.2839 106.528 86.8352 106.585C90.3189 107.312 96.7144 108.122 96.5981 108.614C96.4473 109.444 101.029 110.015 102.447 109.208C104.758 107.945 104.588 109.312 101.784 112.194C97.8542 116.312 91.1419 117.174 84.3785 113.37C84.3045 113.329 84.2316 113.289 84.16 113.25C82.4668 112.207 81.69 112.025 80.0939 112.376C78.991 112.636 76.9239 112.712 75.4644 112.554C73.9222 112.36 72.6374 112.396 72.4983 112.673C72.1732 113.297 76.0837 116.937 81.3109 120.348C89.5555 125.102 99.3898 127.246 103.725 127.391C106.579 127.533 109.493 126.999 111.331 126.119C114.022 124.762 114.015 124.36 113.23 121.441C112.81 119.607 112.905 117.558 113.408 116.409C114.594 114.306 118.25 110.764 119.631 110.559C120.226 110.482 121.885 109.561 123.276 108.58C124.101 107.944 124.903 107.304 125.687 106.66C125.806 107.917 125.923 109.174 126.038 110.431C126.561 116.138 125.122 119.675 117.587 123.878C115.435 125.029 113.115 126.13 110.585 127.136C112.435 127.348 114.236 127.507 115.977 127.631C122.818 128.147 130.74 126.179 137.6 122.747C140.246 121.389 141.502 120.607 142.524 119.599C143.648 118.71 144.59 117.658 145.907 116.013C148.982 112.168 149.064 111.829 148.462 108.671C147.857 105.51 147.964 105.246 150.894 101.771C152.539 99.807 153.854 97.7685 153.754 97.2838C153.593 96.4959 153.736 96.4669 154.476 97.1353C155.833 98.2438 156.817 103.979 156.121 106.586C155.757 107.799 154.293 110.434 152.831 112.361C151.96 113.52 151.087 114.677 150.212 115.831C151.041 115.504 151.872 115.175 152.705 114.844C154.063 114.326 156.039 112.983 157.045 111.828C157.658 111.155 158.27 110.48 158.883 109.802C158.553 110.462 158.223 111.121 157.892 111.779C156.961 113.677 156.954 113.68 158.907 113.274C160.639 112.911 160.819 112.615 160.416 110.741C159.525 106.466 161.932 103.329 167.288 101.532C168.027 101.047 170.501 101.323 176.807 98.0276C178.797 96.9109 180.624 95.4756 182.004 94.1518C180.989 95.1442 179.506 96.7688 175.757 98.3593C172.053 100.111 165.534 99.9801 162.376 98.5887C159.052 97.3117 157.896 96.1989 157.186 95.6967C156.514 95.1612 156.378 95.0272 156.428 95.0991C156.668 95.3061 160.223 99.4026 166.936 100.857C161.367 100.284 157.254 97.4983 155.737 96.8054C154.971 96.4448 154.53 96.4295 155.454 97.5621C155.965 98.129 156.82 99.0647 159.023 100.361C161.12 101.606 165.395 103.304 170.43 103.037C179.514 102.318 183.146 98.3298 184.933 97.015C183.385 100.231 179.663 104.002 175.93 106.228C172.185 108.489 169.924 109.372 169.385 109.996C166.419 111.666 162.246 113.062 155.774 114.738C153.049 115.477 149.46 117.127 144.522 120.042C143.946 120.379 143.361 120.718 142.787 121.054C141.428 122.03 139.906 123.065 138.236 124.134C139.138 124.268 140.006 124.411 140.835 124.564C141.918 124.784 142.933 124.954 143.503 125.025C143.742 125.036 143.934 125.038 144.06 125.03C144.725 124.909 144.82 125.018 144.189 125.321C144.084 125.388 143.871 125.434 143.581 125.459C142.959 125.49 141.734 125.344 140.351 125.101C137.841 124.588 136.323 124.711 134.767 125.46C132.544 126.401 132.726 126.374 136.839 126.624C140.338 126.792 142.318 126.738 143.72 126.229C145.415 125.698 146.722 124.777 148.034 123.357C150.517 120.633 155.487 118.095 158.833 117.839C160.627 117.717 160.645 117.781 158.284 120.541C155.602 123.684 150.493 126.308 146.708 126.559C143.604 126.749 143.617 127.249 146.732 127.939C148.009 128.208 149.816 129.192 150.611 130.112C152.147 131.712 155.093 138.011 154.655 138.6C154.18 139.139 147.249 135.524 145.841 134.012C145.485 133.617 145.133 133.038 144.832 132.392C144.539 131.611 144.283 130.742 144.144 129.981C143.996 129.169 143.848 128.358 143.7 127.546C142.365 127.79 140.84 128.091 139.167 128.427C136.429 128.981 132.171 129.386 129.991 129.205C127.883 129.089 123.116 129.076 119.153 129.063C116.74 129.037 114.207 128.956 111.548 128.773C112.897 129.318 114.229 129.836 115.548 130.334C117.706 131.169 121.211 132.208 123.262 132.541C127.995 133.433 130.274 135.497 132.714 140.72C133.758 142.918 134.485 144.859 134.408 144.936C134.467 145.071 125.106 141.382 121.553 139.746C120.39 139.204 117.54 136.893 115.42 134.562C110.069 128.753 110.291 128.76 105.28 128.688C101.564 128.556 100.958 128.625 101.688 129.562C102.16 130.217 103.113 131.762 103.721 132.964C104.443 134.24 107.723 136.405 111.29 137.944C119.522 141.387 120.311 143.856 111.107 148.905C105.932 151.441 104.262 151.413 105.292 149.42C105.764 148.624 105.046 146.636 103.775 145.04C101.794 142.35 101.908 141.86 103.98 139.786C106.153 137.564 106.088 137.328 103.472 135.492C98.3284 131.738 91.2928 128.968 80.5389 122.271C78.1367 120.371 75.4574 118.279 72.4929 115.853C71.6647 115.159 72.4765 116.492 74.4324 118.706C76.3789 120.982 78.1904 123.274 78.3541 123.943C78.6842 126.017 77.1483 128.805 75.0994 129.355C72.6171 130.232 66.3474 129 66.2567 127.745C66.2587 127.263 65.5488 126.563 64.7103 126.129C63.8719 125.702 60.6429 123.237 57.7857 120.578C56.0507 118.989 54.3704 117.366 52.751 115.719C54.2568 115.829 55.7633 115.918 57.2623 115.98C59.901 116.107 63.1974 116.745 65.1375 117.524C68.5153 118.953 74.4528 122.845 75.0817 124.228C75.4602 125.214 69.8064 127.975 68.5558 127.354C67.9913 127.083 67.5094 127.121 67.345 127.454C66.7663 128.624 70.5322 128.653 73.1427 127.362C77.7061 125.155 77.8182 123.238 74.2955 119.461C72.574 117.586 69.8739 113.731 68.4205 110.786C66.921 107.905 65.7688 105.453 65.6139 105.36C65.4596 105.268 64.889 106.369 64.3234 107.833C63.0188 111.035 61.391 111.557 52.6418 109.044C50.5523 108.428 48.4641 107.757 46.3976 107.046C46.9174 106.744 47.4356 106.44 47.9522 106.134C48.8228 105.632 50.7363 104.055 52.2202 102.694C55.5492 99.6945 59.4491 99.5526 62.8587 102.302C65.4645 104.418 65.6786 103.613 64.0852 99.6296C63.1245 97.1357 62.0646 95.6705 59.6534 93.498C53.7402 88.1041 50.9444 84.1813 48.194 78.4814C45.7336 73.0243 45.203 72.3065 40.8938 67.3726C38.3121 64.47 35.7406 61.6996 34.9259 61.2593C33.6854 60.6676 33.8952 61.0742 35.9309 63.7204C37.2887 65.413 38.4621 67.1877 38.3309 67.6067C38.2468 67.986 37.807 67.9464 37.4028 67.4642C35.8996 65.6529 35.6777 67.2479 37.2285 69.3679C38.7416 71.4206 38.7537 71.4242 36.9414 70.5564C35.2935 69.7638 34.841 69.1609 33.5203 65.6586C31.2515 59.4905 25.8744 53.3701 17.6459 47.0417C12.1208 42.77 11.1424 41.7579 8.3114 37.1997C6.58796 34.4111 4.74869 30.8928 4.13324 29.3921C3.2465 27.2025 2.74918 26.4923 1.68647 26.285C-0.42116 25.7785 -0.323379 25.2189 2.10089 23.8488C4.04819 22.7659 4.61879 22.7557 6.16882 24.0158C8.68684 26.046 10.1538 28.7212 10.6641 32.2839C11.2194 35.9105 12.433 38.1342 16.1922 41.958C17.1087 42.8549 18.0309 43.7507 18.9588 44.6436C19.8364 43.9508 20.7145 43.2587 21.5931 42.5674C24.0494 40.6756 29.88 33.5183 30.4231 31.83C30.5427 31.3271 30.3965 30.0585 30.0101 28.8619C29.713 27.6925 29.8402 25.6723 30.3745 24.419C30.8548 23.1975 31.0567 21.4012 30.7476 20.4216C30.2473 18.8896 30.4258 18.9531 32.6423 21.2618C33.9785 22.608 35.222 24.2501 35.3659 24.8279C35.7847 26.6563 39.3468 23.1472 40.3395 20.0624C40.7824 18.5507 41.4476 17.155 41.7108 16.9922C42.0264 16.797 42.3326 16.116 42.4089 15.414C42.4318 14.7439 43.7408 12.383 45.2207 10.1756C46.7886 7.99468 48.1098 5.40099 48.1524 4.39507C48.292 2.59342 50.1467 -0.0834703 51.039 0.199173C51.2704 0.223697 50.8038 1.48672 49.9669 2.97231C48.8867 5.01154 48.7699 5.65318 49.6038 5.71583C50.4379 5.77814 50.4038 5.96041 49.5582 6.47499C48.9239 6.86077 47.8366 7.92967 47.1558 8.83297C45.7248 10.7645 46.834 11.3899 49.1534 9.9651C51.1634 8.75046 57.0551 10.8884 58.5769 13.2722C59.8214 15.2284 59.5841 15.7628 57.2567 16.9499C55.8005 17.6633 51.4461 15.9141 49.0222 13.5234C47.8026 12.2616 46.4253 11.3147 45.9995 11.3304C45.1303 11.4522 42.4342 16.0491 42.5144 17.2327C42.54 17.6265 43.201 18.6919 43.984 19.5906C45.0927 20.7755 46.2382 21.1929 48.1089 21.1346C49.5562 21.1024 50.317 21.2559 49.9378 21.5811C49.4696 21.8825 48.3276 22.0513 47.37 21.9317C45.6703 21.7974 45.5975 21.9184 45.5082 24.1858C45.4412 25.4556 45.2591 27.2187 45.172 28.1007C44.9949 29.3524 45.6806 30.8918 51.437 38.6522C56.8096 45.798 58.2774 47.5269 58.4995 49.0068C58.7322 50.6384 58.8257 50.7402 59.5834 50.0093C64.886 45.0908 72.3695 33.173 71.1097 31.4031C69.6157 29.4572 70.2435 28.0052 75.384 22.3581C76.0291 21.6682 76.748 19.9234 76.9277 18.5754C77.2563 16.0456 77.3633 15.9702 81.7925 12.8073C83.3141 11.7448 84.8358 10.6823 86.3575 9.61973C86.2072 10.7012 86.0585 11.7767 85.9154 12.8513ZM161.731 122.162C164.055 121.653 165.07 122.049 172.896 124.16C172.96 124.237 173.044 124.311 173.159 124.38C173.904 124.799 176.095 125.216 181.972 123.711C175.573 126.373 173.818 126.721 173.637 127.151C173.055 127.436 172.477 127.718 171.905 127.996C165.946 130.992 163.077 131.68 159.305 131.444C156.698 131.277 154.009 129.526 153.693 127.886C153.587 127.34 152.705 126.817 151.736 126.624C150.061 126.376 150.06 126.377 152.041 126.188C153.2 126.156 155.3 125.307 156.771 124.381C158.152 123.412 160.341 122.458 161.731 122.162ZM116.665 131.918C114.829 130.961 113.209 130.304 113.219 130.489C113.23 130.735 114.811 132.576 116.894 134.568C118.087 135.789 119.286 136.996 120.489 138.188C120.44 137.426 120.391 136.664 120.34 135.901C120.14 134.177 119.185 133.184 116.665 131.918ZM167.471 126.166C163.99 125.638 156.396 125.726 156.552 126.443C156.612 126.747 157.495 126.824 158.49 126.623C159.56 126.406 160.701 126.486 161.099 126.846C161.588 127.249 161.366 127.36 160.467 127.293C159.568 127.225 159.146 127.5 159.257 128.045C159.503 129.12 160.337 129.129 167.15 127.379C168.134 127.118 169.132 126.848 170.148 126.568C169.239 126.442 168.353 126.306 167.471 126.166ZM69.5442 124.122C72.562 124.658 72.5343 124.705 67.8618 122.46C62.4195 119.733 61.2422 119.136 60.8293 119.854C60.4043 120.56 65.8908 123.427 69.5442 124.122ZM95.0206 127.615C92.4509 127.082 90.3075 126.698 90.252 126.941C90.1963 127.182 90.5682 127.524 91.2752 127.674C91.8405 127.798 94.4577 129.345 97.2174 130.927C102.364 133.807 102.859 133.587 100.825 130.49C99.8808 128.846 98.7989 128.382 95.0206 127.615ZM135.889 127.192C131.617 126.729 128.362 127.049 127.727 128.033C127.262 128.824 134.275 128.807 137.372 128.157C139.589 127.647 139.589 127.586 135.889 127.192ZM139.19 102.462C139.152 102.082 139.252 102.127 139.439 102.493C139.663 102.898 140.003 103.702 140.391 104.759C141.543 107.819 141.692 109.05 141.063 111.364C141.059 111.383 141.054 111.402 141.049 111.421C140.537 114.387 137.646 118.632 135.686 119.031C135.049 119.159 133.717 120.058 132.541 120.981C130.358 123.027 121.631 126.676 117.485 126.935C115.915 127.072 118.271 126.351 122.052 125.151C129.089 122.916 133.859 119.37 133.741 117.969C133.742 117.59 133.426 116.392 133.135 115.315C132.401 112.436 133.849 109.11 136.788 106.319C138.478 104.663 139.277 103.327 139.19 102.462ZM61.2669 104.07C59.4922 102.982 56.631 102.926 55.8383 104.031C55.4848 104.691 54.8053 105.65 54.4897 106.26C53.739 107.314 53.8565 107.349 57.0375 107.569C59.1057 107.547 60.6407 107.057 61.2433 106.122C61.7794 105.29 61.7983 104.42 61.2669 104.07ZM150.85 113.188C150.556 111.67 148.875 112.815 147.339 115.557C146.139 117.669 146.079 118.183 146.98 117.701C148.717 116.812 151.04 114.16 150.85 113.188ZM122.592 113.26C121.597 112.408 120.671 112.805 118.857 114.836C117.747 116.091 117.289 117.253 117.683 118.27C118.049 119.039 118.002 120.29 117.493 121.027C116.892 121.834 116.913 122.081 117.569 121.766C119.38 120.924 123.352 113.844 122.592 113.26ZM77.1574 102.201C76.0139 99.6157 76.46 100.016 69.8425 97.9393C68.18 97.3803 66.51 96.7716 64.8648 96.1342C65.3644 97.6154 65.9032 99.0998 66.4832 100.586C67.4551 102.955 68.2674 105.144 68.1109 105.411C67.9884 105.626 68.6746 107.109 69.7007 108.666C70.3605 109.621 71.0407 110.571 71.7328 111.513C73.2775 111.621 74.8351 111.706 76.3601 111.749C78.9617 111.828 81.1219 111.609 81.2417 111.325C81.5072 110.811 80.1338 108.574 77.1574 102.201ZM173.275 103.387C173.132 102.951 171.764 103.106 170.532 103.277C169.274 103.462 168.331 103.674 167.893 103.973C167.443 104.189 166.995 104.459 166.593 104.778C165.753 105.363 164.361 107.021 163.402 108.44C161.969 110.598 161.929 110.795 163.18 109.948C163.999 109.322 165.188 108.859 165.773 108.913C166.409 108.955 167.599 108.282 168.74 107.392C169.069 106.901 169.934 106.213 171.096 105.403C172.235 104.606 173.412 103.696 173.275 103.387ZM138.405 110.73C138.674 108.663 137.875 108.94 136.537 111.415C134.443 115.241 134.378 115.76 136.384 113.843C137.463 112.805 138.34 111.436 138.405 110.73ZM95.9389 110.378C95.8218 110.417 94.5124 110.36 92.9713 110.1C91.4211 109.912 89.4389 109.744 88.6772 109.808C86.9312 109.926 85.6309 111.874 87.147 112.421C89.1404 113.276 97.2602 111.778 96.6977 111.022C96.3267 110.642 96.0454 110.399 95.9389 110.378ZM153.365 103.549C153.158 103.275 152.565 104.089 152.002 105.461C151.501 106.759 151.288 107.998 151.555 108.198C151.883 108.323 152.485 107.511 152.926 106.287C153.379 105.125 153.584 103.883 153.365 103.549ZM48.7288 37.7364C48.1409 38.4047 47.3152 38.7376 46.9133 38.5974C45.7276 37.9925 45.5018 36.0317 46.5234 35.3328C47.601 34.5782 47.1585 33.8549 42.4506 27.8898C41.4887 26.6337 40.5323 25.3671 39.5797 24.0908C38.8998 24.5202 38.22 24.9496 37.5401 25.379C36.4424 26.0728 32.8408 30.3395 29.6501 34.9809C25.1313 41.439 23.3983 43.6255 21.6765 44.389C20.9361 44.7268 20.1954 45.0638 19.4543 45.4002C20.2506 45.8991 21.05 46.3972 21.8506 46.8911C24.8045 48.661 31.4481 49.6378 34.359 48.8066C36.2072 48.3077 36.5641 47.8547 37.1899 45.634C38.119 42.2255 39.9717 40.1075 40.7792 41.272C41.1863 41.8553 41.613 41.8148 42.1997 41.1436C43.1255 39.9875 46.9881 40.4287 47.8796 41.6508C48.6755 42.7605 46.9975 47.8439 45.4343 49.0518C43.8598 50.2513 40.7223 50.7253 38.6818 50.0357C37.8939 49.8008 35.2383 49.83 32.7319 50.1482C30.2279 50.474 27.3914 50.5206 26.4006 50.2842C24.7091 49.8928 24.724 49.9626 27.6184 53.4184C32.158 58.7077 34.9441 60.6993 38.8227 61.6891C42.3754 62.6331 42.3718 62.5987 44.8471 60.0667C47.1368 57.5915 47.4279 57.4708 49.5802 58.108C50.8438 58.456 52.2008 59.0772 52.5779 59.5054C53.2951 60.3173 54.1766 59.0845 56.508 54.5982C57.6089 52.5585 57.696 51.3363 57.1619 49.3312C56.699 47.7037 55.1117 44.8569 53.0845 41.7288C51.9674 40.0292 50.8723 38.3075 49.7946 36.5651C49.4388 36.955 49.0836 37.3454 48.7288 37.7364ZM50.6478 67.9694C51.6971 64.7415 51.6722 64.7032 50.2929 65.8557C48.4266 67.4844 44.9233 67.0382 43.76 65.0122C43.1537 63.9262 42.2415 63.4205 40.5083 63.1685C38.5828 62.8727 38.2916 62.903 39.2614 63.6003C39.9395 64.0388 42.1343 66.4022 44.2482 68.7623C47.5628 72.4411 48.2498 72.8821 48.8969 72.1471C49.2982 71.7609 50.0939 69.8219 50.6478 67.9694ZM49.4175 62.3754C50.8064 60.8626 50.7622 60.8149 49.2547 61.0594C48.3593 61.1595 47.0376 61.7072 46.3321 62.3098C45.1097 63.3542 45.1124 63.4574 46.5024 63.7395C47.4607 63.8991 48.5387 63.3429 49.4175 62.3754ZM44.8336 43.7728C44.054 42.6954 40.404 44.4984 39.8269 46.2431C39.3784 47.6317 39.426 47.6976 41.3838 47.3379C42.5302 47.1241 43.9017 46.378 44.4242 45.7311C44.9464 45.0838 45.1221 44.1717 44.8336 43.7728ZM36.0707 10.9561C37.9691 11.4684 39.8233 14.0477 40.1182 16.4135C40.3197 18.5077 39.6331 18.6956 37.5846 16.8976C36.5531 16.0452 34.2665 14.7878 32.3453 14.1207C31.2265 13.7451 30.1061 13.3649 28.9861 12.9837C29.8956 12.5753 30.805 12.1666 31.7144 11.7577C33.1656 11.0503 35.2112 10.73 36.0707 10.9561ZM73.3844 10.654C75.766 10.7795 75.6403 10.6993 74.8475 12.1848C74.2782 13.2232 73.6499 13.5108 71.7639 13.5833C68.9837 13.6487 68.3178 13.985 66.8359 16.3399C66.4727 16.9106 66.1104 17.4821 65.7492 18.0545C66.395 17.6476 67.0406 17.2406 67.6862 16.8335C69.4946 15.6477 75.4407 14.7228 74.6005 15.7872C74.413 16.061 72.7494 16.6993 70.8348 17.1845C69.0059 17.6861 67.0499 18.5479 66.5922 19.0861C65.7937 20.0004 66.0116 20.1133 68.9708 20.4824C70.707 20.7094 71.7143 20.9537 71.1553 21.1267C70.595 21.2975 69.7914 22.3077 69.3739 23.4302C68.2773 26.1542 66.2732 27.5052 62.5064 27.7551C58.4638 28.0202 57.2607 29.3509 57.4834 33.3927C57.5699 35.106 57.8518 36.5277 57.9904 36.5071C58.1683 36.539 59.6844 35.9883 61.2909 35.3484C64.6045 33.9975 66.5146 33.8496 64.7961 35.1663C64.2549 35.5785 63.6425 36.9192 63.5042 38.1518C63.2343 40.5202 61.3211 42.5785 58.9353 42.9536C57.882 43.1139 57.6655 43.4441 57.9295 44.6744C58.0436 45.5144 57.9987 46.1479 57.7706 46.1607C57.5011 46.1213 57.2638 45.6276 57.1268 45.056C57.03 44.536 56.5279 43.4957 55.9587 42.7542C55.2752 41.763 55.2822 40.7442 56.0267 38.9483C56.6307 37.5859 56.8613 35.7047 56.624 34.74C56.134 32.8033 57.2284 28.1947 58.2345 27.9059C58.6139 27.8019 58.5907 27.6595 58.276 27.6391C57.0935 27.3458 57.1989 24.6367 58.5456 22.6396C59.6831 20.7775 60.0354 20.638 62.4947 20.3099C63.3894 20.2008 64.2818 20.0868 65.173 19.9692C65.3278 19.2776 65.485 18.5872 65.6433 17.8962C65.9562 16.6946 66.5005 15.4972 66.9136 15.2247C67.3262 14.9518 67.3585 14.552 66.9946 14.3358C65.8673 13.8661 65.1413 11.0288 65.9761 10.4934C66.9665 9.85886 67.3108 10.4035 67.2816 12.6277C67.2716 13.2171 67.2623 13.8054 67.2537 14.3927C67.9476 13.7591 68.6423 13.1264 69.3377 12.4947C70.9927 10.9569 71.8753 10.6122 73.3844 10.654ZM99.7179 72.4614C99.3733 71.0457 99.3836 71.046 99.0562 72.2516C98.896 72.9228 98.7864 74.0856 98.9154 74.874C98.9899 75.625 99.031 75.9724 99.1329 75.9472C99.1932 75.9148 99.3211 75.6182 99.5565 75.0671C99.636 74.8664 99.7092 74.6165 99.7754 74.3465C99.8521 73.7385 99.8314 73.0111 99.7179 72.4614ZM73.6969 46.7871C74.2358 46.2685 73.9126 46.0561 71.2444 44.6609C68.0376 42.9049 67.1424 42.9366 64.7874 45.4337C63.6346 46.6567 62.8971 47.794 63.0232 47.9424C63.1912 48.1395 65.1259 48.0196 67.2612 47.6289C69.4004 47.246 71.5801 46.9679 72.2227 47.0223C72.8218 47.1222 73.4719 46.9992 73.6969 46.7871ZM58.3069 19.0241C58.6133 18.5883 58.9081 18.4743 58.8964 18.7955C58.9205 19.1716 58.1577 20.3766 57.1734 21.5802C54.6679 24.7413 54.453 25.2135 54.7942 28.0305C54.9932 29.4209 54.8897 30.1379 54.5502 29.646C54.2113 29.1539 53.9836 27.6125 54.1101 26.2454C54.1981 24.823 54.1052 23.4462 53.8852 23.1113C53.1494 21.9922 54.6493 19.9823 56.2767 19.8753C57.1003 19.8926 58.0005 19.4598 58.3069 19.0241ZM79.6243 48.3018C80.3795 46.7077 80.1709 46.1684 78.4842 45.7832C76.55 45.3143 75.7177 45.5904 74.5258 47.3017C73.1095 49.3091 73.1163 49.4114 74.6529 49.563C78.5701 49.815 79.0388 49.6162 79.6243 48.3018ZM111.42 54.6683C111.703 53.6378 112.531 57.4593 112.387 59.6605C112.323 61.0262 108.47 68.1614 107.897 68.0996C107.817 68.0999 107.621 66.7383 107.509 65.0665C107.341 60.9062 107.802 58.562 109.626 56.831C110.41 56.0949 111.305 55.1188 111.42 54.6683ZM64.4753 24.7453C66.8416 23.7032 66.8007 22.6772 64.3737 22.9691C63.3582 23.1303 62.2516 23.2651 61.8873 23.2796C61.5592 23.3473 61.6168 23.5419 62.0384 23.7201C62.5832 23.9687 62.4219 24.3887 61.6577 24.9153C60.1649 26.0198 61.9035 25.9248 64.4753 24.7453ZM110.255 60.6299C110.53 59.7398 109.343 59.3989 109.023 60.2132C108.836 60.6557 108.64 61.8382 108.56 62.8305C108.506 63.4509 108.449 64.0712 108.388 64.6913C108.511 64.1111 108.63 63.53 108.743 62.9483C108.929 62.0142 109.288 61.2547 109.553 61.2379C109.856 61.2196 110.16 60.9479 110.255 60.6299ZM56.4519 3.16557C55.2278 5.43468 51.8329 7.11695 51.0765 5.8756C50.8247 5.46184 50.8851 4.36977 51.2487 3.41789C51.8553 1.91136 52.2106 1.78165 54.7595 1.45283C55.6977 1.36986 56.6352 1.28504 57.5718 1.19816C57.1982 1.854 56.8251 2.51011 56.4519 3.16557ZM79.5738 30.1268C81.9675 27.8773 80.8568 26.9959 77.7033 28.6897C76.133 29.4958 75.974 29.6955 76.9682 29.8527C77.5419 29.978 78.0736 30.3421 78.0938 30.7586C78.1497 31.2196 78.6868 30.9963 79.5738 30.1268ZM82.8705 16.1383C82.445 15.55 82.0256 15.707 80.986 16.8043C80.2317 17.5566 79.3291 18.4207 79.062 18.6847C78.1451 19.4228 81.018 18.5349 82.2631 17.6167C82.9946 17.1497 83.1979 16.5902 82.8705 16.1383Z" fill="#067C0B"/>
</svg>
