<svg width="115" height="129" viewBox="0 0 115 129" fill="none" xmlns="http://www.w3.org/2000/svg">
<path d="M62.8381 126.08C62.0031 124.748 61.415 123.447 61.4791 123.196C61.576 123.01 61.2889 123.05 60.8658 123.351C60.169 123.794 60.0693 123.599 60.1918 121.957C60.3199 120.175 60.511 119.943 62.7177 118.771C65.1054 117.502 65.1217 117.462 65.5818 114.67C66.1511 111.412 65.8723 110.556 64.1534 109.657C63.1115 109.112 62.844 109.114 62.8642 109.836C63.1612 114.215 62.3706 118.162 61.4386 117.013C61.1829 116.737 61.2263 116.143 61.4405 115.734C61.8298 114.988 61.7786 114.962 60.3877 115.325C59.6106 115.534 58.3552 116.015 57.6217 116.389C57.1701 116.611 56.718 116.832 56.2657 117.053C56.1797 116.152 56.0943 115.252 56.0095 114.351C55.8623 112.848 55.9345 110.935 56.1189 110.081C56.3227 109.19 56.2911 108.364 56.0292 108.225C55.3486 107.864 53.7647 108.686 53.2296 109.687C52.9722 110.169 52.0431 110.768 51.1983 111.079C49.7131 111.57 49.6325 111.718 50.1737 112.485C50.8661 113.476 49.2942 115.4 48.6113 114.509C48.3729 114.19 48.5786 113.68 49.0157 113.247C50.1469 112.28 49.2243 111.977 47.2147 112.659C46.2927 112.974 45.1559 113.171 44.6902 113.014C44.1516 112.865 44.1056 112.696 44.6051 112.537C44.9583 112.394 45.7989 111.224 46.4275 109.94C47.3042 108.072 47.8048 107.531 49.1927 107.23C51.4482 106.74 59.3401 107.944 60.7441 109.055C61.6579 109.726 61.9257 109.724 62.336 108.942C62.8603 107.937 62.5469 101.216 61.928 100.887C61.7204 100.777 60.4214 101.848 58.9932 103.279C56.609 105.63 54.7273 107.008 55.1703 106.053C55.2894 105.83 56.5523 104.599 57.9748 103.309C59.3978 102.019 60.5944 100.893 60.6141 100.856C60.6535 100.782 60.0747 100.617 59.2807 100.48C58.5388 100.371 57.2789 100.603 56.4727 100.982C54.8033 101.853 50.7124 101.559 48.5657 100.382C47.858 99.9944 46.8905 99.6339 46.1551 99.4551C45.9901 99.4054 45.835 99.3625 45.6935 99.3281C43.369 98.7837 43.587 98.466 46.3564 97.5311C46.7119 97.4119 47.0659 97.2906 47.4181 97.1672C47.8426 96.9672 48.2668 96.7668 48.6906 96.5661C48.4353 96.4608 48.1799 96.3553 47.9246 96.2496C47.2524 95.9552 46.5817 95.6516 45.9127 95.3384C44.3307 94.5617 43.0603 93.7968 43.1509 93.6561C43.2199 93.5495 44.5242 93.8366 46.0678 94.2109C46.9596 94.4405 47.9717 94.5722 48.8355 94.5995C49.4384 94.5718 49.9653 94.4961 50.2993 94.3807C52.2943 93.704 55.4922 94.1085 57.716 95.3038C59.423 96.2215 59.9379 96.2573 61.8895 95.5832C62.6245 95.3239 63.3588 95.0637 64.0923 94.8026C64.2491 93.7596 64.407 92.7168 64.5657 91.6744C65.0972 88.196 65.0469 86.4527 64.4005 87.5366C63.9849 88.3157 61.552 88.3011 60.1174 87.5248C59.554 87.2205 58.332 86.1754 57.4614 85.2202C56.9014 84.6268 56.3426 84.0327 55.7851 83.4377C56.5857 83.5107 57.3858 83.5821 58.1856 83.652C60.046 83.7581 61.0216 84.1448 62.7283 85.2558C64.9262 86.6767 64.9473 86.6369 65.1363 85.5471C65.2607 84.9463 65.1646 82.7966 64.9788 80.8341C64.8121 78.8346 64.8177 77.0206 64.9378 76.7987C65.298 76.1324 64.1914 75.7764 61.222 75.5863C60.3844 75.5193 59.7692 75.5107 59.3424 75.5665C58.8044 75.6536 58.5722 75.8392 58.5789 76.1448C58.6425 77.4769 57.0266 79.8089 55.1912 80.7475C53.751 81.4714 53.4456 81.4813 53.587 80.7834C53.7205 80.3247 53.6027 79.3717 53.353 78.6709C53.0994 77.9692 52.9978 76.8521 53.202 76.2318C53.3792 75.5445 53.4261 74.9706 53.3336 74.9088C53.1942 74.8163 52.0594 74.5142 50.8298 74.1929C48.1552 73.4204 48.2065 73.1066 50.8385 72.5815C53.1621 72.0799 56.1028 72.6426 57.211 73.8881C57.7564 74.4674 58.4403 74.7708 59.7297 74.8649C59.9776 74.8896 60.2465 74.9088 60.5394 74.923C61.9482 74.9794 63.6474 75.093 64.2708 75.1448C65.3269 75.2406 65.3147 75.1392 64.3519 73.801C63.888 73.1281 62.8849 72.0067 61.8598 71.0062C61.6391 70.7741 61.419 70.5487 61.2057 70.3387C60.6032 69.704 60.0207 69.0607 59.4596 68.41C56.7615 68.05 54.0492 67.4928 51.351 66.7004C49.7641 66.1561 48.1936 65.6168 46.6356 65.0638C45.3315 65.4519 44.0229 65.8305 42.7063 66.1947C40.1203 66.8689 37.076 67.1183 33.874 66.6632C32.2468 66.4477 30.6042 66.1793 28.9422 65.8355C28.9268 66.5663 28.9205 67.2991 28.9231 68.0339C28.8776 70.9032 27.963 72.6387 25.4217 73.7228C23.4926 74.584 21.8817 74.2328 22.924 73.2526C23.1683 73.0215 23.1907 72.6171 22.9515 72.36C22.7602 72.1548 22.3328 71.0111 22.0742 69.8212C21.8647 68.8485 21.9238 68.0667 22.2671 67.4732C22.5001 67.0112 22.9092 66.6771 23.4922 66.4468C24.2287 66.1185 25.2351 65.9367 26.5199 65.8378C27.9992 65.6764 29.0389 65.3162 28.8704 65.1307C28.5295 64.7505 27.647 64.5138 26.0361 64.3155C24.9864 64.1238 23.6443 63.9088 21.9531 63.5483C20.5519 63.2431 19.138 62.8462 17.7219 62.3524C17.4906 63.0891 17.278 63.8386 17.0847 64.5997C16.4452 67.3245 14.0353 68.4536 9.58871 66.6809C8.68025 66.3169 7.77216 65.9186 6.86674 65.4853C7.18347 65.0319 7.50516 64.5839 7.83162 64.1414C8.34988 63.3979 9.26617 61.9162 9.82549 60.9019C10.879 59.0691 11.1254 59.3705 15.7043 60.9779C18.3678 61.9238 21.6987 62.6391 23.1499 62.9828C25.285 63.4103 25.6204 63.2601 25.0506 62.5181C23.8695 60.9329 20.7443 59.831 16.0304 58.198C13.5235 57.2626 11.7713 56.0527 12.0907 55.9503C12.4469 55.8214 12.145 55.3576 11.318 54.8435C9.65946 53.7879 8.07927 51.0756 7.43144 46.8334C7.38646 46.5663 7.34566 46.285 7.31028 45.9992C7.20746 45.0721 7.1117 44.1378 7.02424 43.1971C7.49339 43.551 7.96364 43.8998 8.43494 44.2446C9.13391 44.7649 10.0893 45.7171 10.6485 46.4604C10.714 46.5791 10.7751 46.6937 10.8306 46.8033C11.8985 49.1481 13.8911 55.2845 13.1605 55.5714C12.9213 55.6494 14.2579 56.5521 16.22 57.2754C18.1792 58.0169 20.3181 58.7543 20.9466 59.1008C22.6348 59.9564 21.9585 59.6068 18.7191 54.8425C16.7412 51.7696 15.2856 48.7756 14.104 46.0598C13.4796 44.9152 12.8572 43.8642 12.2318 42.9047C10.7211 40.6627 11.3657 40.2257 13.0699 42.3807C14.311 43.847 14.4678 43.5214 14.051 40.5178C13.8029 38.8086 14.1438 39.2073 15.6232 42.1478C16.3976 43.7087 16.7847 44.6907 16.9165 45.7337C16.972 46.1776 17.0058 46.6282 17.0278 47.1178C17.5605 51.0485 16.7336 53.3137 25.7855 62.2361C26.2343 62.6279 26.7154 62.9909 27.2222 63.3217C31.7164 66.1007 37.9023 66.3547 42.6255 64.5942C43.9735 64.1161 45.5307 63.7023 46.0445 63.7068C46.571 63.7206 49.1599 64.6307 52.1277 65.7781C52.4199 65.8758 52.7156 65.9732 53.0126 66.0697C57.0125 67.3247 58.4339 67.3158 58.035 66.8243C57.266 65.8038 55.834 64.8062 53.8388 63.7462C53.0424 63.2838 52.1733 62.8257 51.2377 62.3731C49.1675 61.3809 47.098 60.1452 46.6284 59.7115C45.6818 58.8676 45.2816 54.7855 46.003 54.1229C46.1814 53.9444 46.3011 53.4108 46.2146 52.9623C46.1158 52.2601 45.9045 52.2807 44.9771 52.77C44.3923 53.1313 43.5442 53.3352 43.1309 53.2587C42.6635 53.1806 41.6983 52.5646 40.8764 51.8817C40.0923 51.3073 39.5109 50.5812 39.7208 50.445C40.1555 50.1354 39.3238 48.9595 38.5981 48.7887C37.3696 48.4816 38.2697 48.2287 40.4874 47.9583C42.9702 47.6006 44.4073 47.5685 45.1389 48.3104C45.4742 48.6723 45.7678 49.1115 46.0261 49.6332C46.5104 50.5458 46.8653 50.7929 47.8193 50.8144C48.4665 50.82 49.5567 51.0245 50.2942 51.2716C51.0642 51.5522 51.7715 51.6392 51.9151 51.4861C52.32 51.0698 50.3897 47.5293 49.3292 44.7996C49.328 43.8487 49.5453 43.2467 49.4506 43.0436C49.3753 42.8782 49.001 42.8316 48.4316 42.8323C47.5597 42.8412 47.3018 42.828 45.3649 43.4054C44.1533 43.7576 42.8026 44.0781 42.0333 44.1144C41.02 44.1509 39.5256 43.7417 38.7563 43.2015C38.428 42.8143 38.213 42.4564 38.1856 42.2022C38.1451 41.8339 37.5701 40.7812 36.981 39.8303C36.5938 39.2659 36.211 38.699 35.833 38.1297C36.6905 38.1383 37.5479 38.1456 38.4053 38.151C42.0066 38.1285 44.0908 39.2299 46.5171 42.3017C46.7108 42.3616 46.9059 42.4177 47.1034 42.4687C47.7691 42.6428 48.4382 42.7129 49.0927 42.6941C49.2288 42.5184 49.3774 42.3609 49.5346 42.2177C49.65 42.1127 49.733 42.0183 49.7827 41.9231C49.7227 39.1013 48.9771 35.6965 47.8851 32.3484C47.3807 30.8824 47.0873 30.1546 46.6473 29.5735C46.1165 30.1816 45.4013 30.4426 44.4379 30.1121C43.4207 29.6889 43.041 29.0102 42.558 28.6202C42.0858 28.199 41.5495 27.9324 40.5459 27.4994C38.5763 26.5726 38.2815 26.7101 37.6446 23.5832C37.3163 21.7718 36.9219 19.8699 36.6096 19.736C36.1153 19.5021 36.1678 19.3946 36.8856 19.1401C38.1399 18.6063 41.6963 20.3433 42.6893 22.1139C43.137 22.9622 43.7338 25.2944 44.1762 26.8768C44.4427 27.8345 44.7738 28.6762 45.1944 29.3539C45.2397 28.9742 45.3359 28.5029 45.4775 27.9508C45.7016 27.095 45.9598 25.1585 45.9071 23.768C45.8828 22.9552 45.8713 22.0919 45.8583 21.18C46.0198 21.8097 46.1785 22.426 46.3389 23.0257C46.8236 24.6883 46.7996 24.7783 47.6789 22.8027C48.4766 20.9475 48.4354 20.4898 47.2148 20.0528C44.8671 19.093 44.5705 16.513 44.6632 10.7983C44.6774 7.6038 44.2308 4.4235 44.1817 2.27973C44.1633 1.05803 44.2314 0.278393 44.3626 0C45.0632 0.146157 45.7722 0.339412 46.5017 0.641398C48.5831 1.85056 50.5986 2.2639 50.6752 11.4663C50.524 16.5788 48.5159 22.1674 46.7737 26.0563C46.3036 27.1721 45.9156 28.3727 45.8458 29.3527C45.7674 30.3038 46.0934 31.1063 46.9384 30.4944C47.1619 30.3213 47.3967 30.0387 47.6141 29.6594C48.0149 30.3579 48.4386 31.226 48.8946 32.1625C49.1076 31.7039 49.3279 31.2772 49.5542 30.8971C49.8209 30.4693 50.0604 30.1038 50.2085 29.89C50.2509 30.1649 50.2688 30.3612 50.2682 30.4704C50.2105 30.8585 50.2852 30.9148 50.4699 30.545C50.526 30.4581 50.55 30.2481 50.5334 29.9189C50.4231 30.1663 50.1591 30.6239 49.8377 31.1971C49.1298 32.3789 49.0215 33.2466 49.3419 34.1369C49.7303 35.4072 49.7039 35.2772 50.3702 33.1468C50.8977 31.4395 51.1892 30.5362 51.1156 29.9706C50.8611 31.3645 50.1757 31.8635 49.3528 31.716C47.6693 31.6779 48.1109 28.3443 49.995 25.04C50.9663 23.2565 50.9796 23.4098 51.0864 26.7821C51.1723 28.6205 50.9954 30.5353 51.0287 31.5502C51.0352 32.6049 51.311 32.6498 51.3627 31.8758C51.3969 31.2488 51.4986 30.6237 51.656 30.6383C51.8164 30.6147 52.0413 31.2378 52.2825 32.0108C52.4688 32.6523 53.2062 33.1689 53.8708 33.4361C55.0224 33.9488 59.3448 35.4951 59.6129 35.7236C59.7221 35.8266 58.9835 35.7169 58.3383 34.7495C57.6843 33.8449 56.9342 32.0698 56.4097 31.4675C55.8861 30.8825 54.8485 30.3686 53.9446 30.2221C53.8406 30.215 53.7388 30.2071 53.6402 30.1983C53.0819 30.1489 52.5236 30.0994 51.9653 30.0499C51.9204 30.5488 51.8845 31.2952 51.879 32.147C51.8597 33.5474 51.6748 35.7837 51.3783 36.8822C51.133 37.8756 50.8282 40.0074 50.7348 41.8127C50.7111 41.8298 50.6888 41.8465 50.6681 41.8629C50.4882 41.9953 50.3174 42.1414 50.164 42.3158C50.5365 42.1421 50.9199 41.9977 51.3106 41.8814C51.7081 41.7614 52.2224 41.646 52.6598 41.5895C52.8797 41.0936 53.0723 40.6248 53.1955 40.2502C54.0197 38.011 55.6387 36.9331 59.368 36.0402C60.9434 35.656 62.3197 35.4271 62.3638 35.4612C62.4235 35.4104 59.1546 39.3232 58.001 40.8795C57.976 40.9105 57.9463 40.9443 57.9122 40.9806C57.3234 40.9217 55.6545 40.9703 54.1036 41.274C50.0377 42.1638 50.1105 42.4608 50.1843 42.6237C50.2581 42.7939 50.387 42.7586 50.8982 42.4672C51.2649 42.2604 52.1655 41.804 52.8962 41.4813C53.6577 41.1291 54.9651 40.6321 56.1231 40.5306C58.7927 40.2925 60.6665 40.7752 63.2128 38.2733C64.4891 36.8967 64.411 36.5641 63.2017 37.2534C62.7235 37.5283 61.4284 37.9123 60.4036 38.192C58.6908 38.6864 58.4203 38.9052 57.1313 39.6259C55.7627 40.3812 55.5738 40.3656 54.4672 40.7728C52.682 41.4551 51.3526 42.3121 50.6763 43.671C50.8353 45.2493 51.4475 47.1735 52.7415 49.6035C52.9963 50.0771 52.8769 49.2207 52.5783 47.7988C52.308 46.3449 52.3426 44.9565 52.5216 44.5924C53.1415 43.4643 54.8339 42.142 55.8531 41.9408C57.1372 41.6097 59.4339 42.406 59.1449 43.106C59 43.3747 59.1233 43.7831 59.4037 44.0454C59.678 44.3044 60.5722 45.7624 61.5838 47.3688C62.1926 48.329 62.8513 49.3178 63.5536 50.3349C62.6974 50.2707 61.8529 50.2137 61.0185 50.1611C59.5449 50.0594 57.8584 49.5838 57.0115 49.0413C55.4628 48.0592 53.7854 45.4578 54.0478 44.6783C54.229 44.1435 57.6089 42.9127 57.9799 43.2665C58.1514 43.4339 58.3861 43.4264 58.5609 43.2448C59.1665 42.6048 57.5116 42.5188 55.9624 43.0904C53.28 44.052 52.3719 44.9585 52.8739 47.381C53.1071 48.5718 53.5034 51.034 53.7451 52.9446C53.9977 54.815 54.3463 56.4499 54.4246 56.5185C54.5052 56.587 55.0149 55.9167 55.5853 55.0212C56.829 53.183 57.6659 52.9258 61.8508 54.232C62.067 54.2563 62.2948 54.2825 62.5352 54.3097C63.4071 54.4057 64.2818 54.4751 65.1578 54.5195C64.8712 54.7792 64.5829 55.0374 64.2929 55.2941C63.8078 55.7206 62.658 56.9092 61.7262 57.8915C60.1719 59.5413 58.5289 60.2031 57.222 59.7287C56.6873 59.481 56.1835 59.1162 55.7293 58.6355C54.3666 57.14 54.0777 57.6143 54.6601 60.3193C54.8057 60.9797 54.9877 61.544 55.2441 62.0774C55.51 62.7978 55.9575 63.4318 56.7243 64.1751C59.0339 66.3756 60.7538 67.9651 62.4945 69.8565C63.2535 70.6051 64.0052 71.3974 64.7964 72.2718C67.6202 75.4356 68.1891 75.8395 72.4363 78.1019C74.9867 79.4098 77.5769 80.5307 78.2536 80.6006C79.2631 80.6545 78.9755 80.4584 76.8113 79.2734C75.3896 78.5258 74.1013 77.6531 74.0676 77.3497C74.0143 77.0836 74.3149 77.0052 74.7198 77.2195C76.2388 78.0223 75.9012 76.9419 74.2931 75.9468C72.7365 74.9775 72.7378 74.9772 74.1542 75.1115C75.451 75.2284 75.8823 75.5065 77.7898 77.4134C81.1287 80.7863 86.8043 83.212 94.4843 84.5646C99.665 85.4828 100.69 85.7723 104.405 87.6879C106.676 88.8589 109.392 90.455 110.453 91.1961C111.993 92.2802 112.634 92.5674 113.404 92.353C114.979 91.9893 115.174 92.3765 114.245 94.0253C113.492 95.3391 113.129 95.5281 111.571 95.2369C109.05 94.7759 106.922 93.577 105.043 91.5178C103.113 89.4325 101.395 88.4531 97.4469 87.2718C96.4997 87.0049 95.5531 86.7383 94.607 86.4718C94.329 87.1798 94.0511 87.8877 93.7731 88.5956C92.965 90.5435 92.2396 96.8822 92.6393 98.1286C92.781 98.4852 93.431 99.2455 94.2091 99.8826C94.9164 100.531 95.7333 101.85 95.9517 102.814C96.1896 103.74 96.8697 104.943 97.5111 105.464C98.5242 106.271 98.3833 106.292 95.9128 105.537C94.4433 105.11 92.8956 104.454 92.542 104.13C91.4494 103.095 90.7009 106.444 91.4707 108.732C91.8747 109.839 92.0852 110.941 91.989 111.128C91.8734 111.352 91.9883 111.884 92.2631 112.357C92.5574 112.792 92.7979 114.714 92.862 116.593C92.8562 118.483 93.2035 120.556 93.6393 121.209C94.3788 122.397 94.4101 124.688 93.7095 124.797C93.55 124.856 93.2714 123.906 93.1261 122.694C92.8816 121.052 92.6599 120.606 92.091 120.832C91.5219 121.058 91.4588 120.931 91.7678 120.334C91.9996 119.885 92.2081 118.858 92.23 118.065C92.2615 116.377 91.2503 116.328 90.4018 117.972C89.6688 119.39 84.7759 119.846 82.5658 118.709C80.7678 117.783 80.663 117.351 81.677 115.888C82.3318 114.996 86.1099 114.86 88.8183 115.641C90.2143 116.077 91.5507 116.247 91.8203 116.102C92.3273 115.749 91.9508 111.959 91.3541 111.226C91.1555 110.982 90.2323 110.506 89.3017 110.168C88.0246 109.747 87.0741 109.825 85.8542 110.427C84.904 110.883 84.3191 111.007 84.4215 110.682C84.5947 110.345 85.282 109.895 85.9756 109.685C87.17 109.26 87.1573 109.159 86.1726 107.659C85.6319 106.814 84.9488 105.611 84.6072 105.009C84.1549 104.112 83.0126 103.441 75.6324 99.7597C68.7855 96.2981 67.0194 95.2544 66.2762 94.2944C65.4695 93.202 65.367 93.1471 65.0836 93.8058C62.9245 98.2294 62.5376 108.293 64.5046 109.367C66.6394 110.483 66.8326 111.625 65.8428 116.842C65.7084 117.483 66.0912 118.913 66.6865 119.931C67.8113 121.839 67.7724 121.913 66.1257 125.226C65.5464 126.346 64.9672 127.467 64.388 128.587C63.8721 127.752 63.3554 126.917 62.8381 126.08ZM53.924 24.2259C54.8111 21.6012 56.052 21.0676 59.0181 12.3933C59.6153 10.3051 60.1038 8.01199 60.516 5.85868C60.8741 4.01321 61.1547 2.526 61.4721 1.42833C61.9443 3.14842 62.5882 6.04487 62.6788 10.2106C62.6984 11.0545 62.6895 11.9197 62.649 12.7967C61.609 25.4243 59.0423 28.1777 57.2768 30.985C55.8341 32.8864 54.1513 32.9039 53.1148 32.4467C52.773 32.2845 52.2156 32.3872 51.9057 32.4704C51.6648 32.5526 51.576 32.5242 51.5461 32.5135C51.5216 32.4914 51.5507 32.4961 51.7117 32.2845C51.9243 32.1021 52.1209 31.0024 52.3352 29.6133C52.4355 28.3599 53.2037 25.9936 53.924 24.2259ZM52.42 41.6419C51.6778 41.791 51.2022 41.9713 51.3237 41.9372C51.4863 41.8969 52.7373 41.5176 54.1948 41.3004C55.0817 41.1634 55.9779 41.0799 56.8781 41.0484C56.3642 41.1176 55.8501 41.1856 55.3359 41.2526C54.169 41.4026 53.4103 41.4466 52.42 41.6419ZM59.6092 18.099C58.469 21.0905 56.4718 25.0263 55.1379 27.1976C53.7802 29.4657 53.113 30.4955 53.3377 30.6257C53.5273 30.7152 53.9419 30.2546 54.3487 29.4124C54.7809 28.5217 55.4989 27.4649 55.9221 27.2354C56.4247 26.9313 56.3356 27.248 55.7757 28.0649C55.2211 28.8639 55.1485 29.2992 55.4879 29.4681C55.833 29.6201 56.1025 29.558 56.6922 28.5114C57.2583 27.3484 58.3394 25.6597 60.0707 19.348C60.5373 17.5008 60.947 15.4236 61.1982 13.1566C60.7495 14.9639 60.2008 16.616 59.6092 18.099ZM56.5427 45.0352C55.32 44.5964 55.2668 44.5694 56.8695 46.0473C58.8253 47.8247 59.4703 48.188 59.8131 47.7701C60.1576 47.3509 57.9933 45.5813 56.5427 45.0352ZM50.3647 43.1453C50.3756 43.3203 50.5299 43.3869 50.664 43.2856C50.7994 43.1859 50.9204 43.0666 50.8981 43.0352C50.8797 43.01 51.3383 42.4867 52.0349 42.0094C53.3518 41.1781 53.3091 41.2715 51.5116 42.1898C50.591 42.6953 50.3549 42.8908 50.3647 43.1453ZM50.633 33.6929C49.8068 35.8947 49.7932 37.6523 50.4093 37.9984C50.8876 38.2668 51.456 34.6559 51.4612 33.0173C51.4168 31.86 51.3581 31.8146 50.633 33.6929ZM34.7169 28.4996C34.1739 28.4356 34.9808 28.3995 36.4048 28.5388C38.5834 28.7442 39.3902 29.0471 40.8658 29.1064C41.0209 29.1113 41.1801 29.1106 41.3418 29.1019C43.098 29.9902 45.1329 31.9423 45.1555 33.0092C45.1585 33.3886 45.5972 34.2502 46.0928 34.9929C47.0104 36.2501 48.4293 39.7688 49.031 42.0103C49.1017 42.0768 49.1421 42.1315 49.1431 42.1794C49.1587 42.2625 48.9214 42.2439 48.5819 42.0623C48.4483 41.7237 48.3011 41.3235 48.1474 40.8796C46.904 37.2677 45.1727 34.0926 44.2082 34.0296C43.9548 33.992 43.1158 34.0588 42.3609 34.1261C40.355 34.289 38.2599 33.0382 36.8589 30.6836C36.1114 29.4727 35.4573 28.7441 34.9079 28.53C34.8422 28.5173 34.7785 28.507 34.7169 28.4996ZM56.9306 57.5599C57.3584 57.8992 57.9454 58.1114 58.5218 58.1851C59.1308 58.1619 59.7466 57.9168 60.0751 57.5101C60.3629 57.0941 60.8667 56.474 61.1299 56.0921C61.5935 55.52 61.6347 55.4387 60.765 55.5213C60.5407 55.495 60.2702 55.4672 59.9499 55.4351C58.6802 55.408 57.6893 55.6666 57.1972 56.2414C56.7608 56.753 56.6389 57.312 56.9306 57.5599ZM43.8856 28.1694C42.9414 27.7011 42.9493 29.0054 44.3709 29.9187C44.9164 30.2651 45.304 30.3717 45.5074 30.4413C45.7137 30.5034 45.7396 30.5252 45.6488 30.4655C45.2668 30.344 44.4699 28.4893 43.8856 28.1694ZM40.1176 40.431C39.4977 41.007 39.7257 41.6221 41.0716 42.673C41.1784 42.7547 41.2846 42.8291 41.3898 42.8962C42.0746 43.0742 42.7364 43.0557 43.3452 42.9159C43.8779 42.779 44.7169 42.7116 45.1884 42.7368C45.704 42.7704 45.8692 42.7375 45.6871 42.6606C45.5736 42.6149 45.2554 42.5671 44.8261 42.4978C43.2789 41.5026 40.4464 40.1248 40.1176 40.431ZM46.8412 57.389C47.0418 59.1705 46.7624 58.9744 50.7457 61.0061C51.7593 61.5322 52.7878 62.0588 53.8318 62.5922C53.6186 61.5685 53.4173 60.5514 53.2318 59.5425C52.8962 57.9251 52.7829 56.4787 52.9218 56.3211C53.0333 56.1949 52.8589 55.203 52.5813 54.1592C52.3925 53.5166 52.2161 52.8797 52.0537 52.2497C51.2244 52.0518 50.406 51.8524 49.5981 51.6493C48.2275 51.3077 47.0553 51.1107 46.9016 51.2551C46.6555 51.5287 46.4246 52.9497 46.8412 57.389ZM46.5789 3.27895C45.7584 3.34807 45.9786 5.74056 46.5343 9.01222C46.6052 9.52202 46.7389 10.216 46.8713 11.0437C47.1155 12.4384 47.3642 14.0308 47.5739 15.2906C48.0537 18.2235 48.1008 18.3592 48.3078 16.3118C48.3955 14.9214 48.6452 12.9378 48.8821 12.0353C48.9358 11.8331 48.978 11.5788 49.0065 11.2809C49.1847 9.63734 48.8107 7.17546 48.214 5.64846C47.6265 4.07826 46.9374 3.24857 46.5789 3.27895ZM40.028 30.3316C38.708 29.848 38.7507 30.4015 40.2 31.5751C42.4548 33.365 42.8014 33.4229 41.792 31.9875C41.2514 31.2053 40.4837 30.478 40.028 30.3316ZM40.8209 49.8209C40.8741 49.8241 41.1938 50.0713 41.534 50.377C41.731 50.5255 41.9848 50.661 42.223 50.7535C42.488 50.8981 42.7339 51.0033 42.8927 51.0354C43.6605 51.2152 44.9359 50.3078 44.5631 49.8826C44.449 49.7514 44.1455 49.6079 43.7558 49.4692C42.8253 49.3631 41.1371 49.184 40.959 49.4226C40.8526 49.6427 40.8031 49.7941 40.8209 49.8209ZM39.7207 22.7784C39.4779 22.7984 39.6214 23.5587 40.1086 24.4762C40.5827 25.3259 41.1772 25.9331 41.3935 25.8715C41.594 25.7453 41.4098 25.0682 40.9637 24.2584C40.554 23.4694 40.0028 22.7745 39.7207 22.7784ZM77.9077 99.6606C78.0236 99.058 78.4488 98.6155 78.7836 98.5994C79.8523 98.6794 80.8501 99.9042 80.4646 100.651C80.0587 101.434 80.6937 101.86 86.5155 104.337C87.7203 104.863 88.9245 105.388 90.128 105.913C90.3781 105.427 90.6282 104.941 90.8783 104.456C91.2825 103.671 91.703 99.8214 91.7756 95.8877C91.9368 90.3923 92.2007 88.4948 92.9833 87.4794C93.319 87.0377 93.6547 86.5961 93.9904 86.1544C93.2864 86.0913 92.5827 86.0282 91.8791 85.9651C89.3132 85.7785 84.6652 87.114 83.0575 88.4582C82.0357 89.3014 81.963 89.6901 82.429 91.3039C83.1703 93.77 82.8373 95.679 81.8086 95.1474C81.2944 94.8816 81.0242 95.026 80.9081 95.6285C80.7729 96.6471 77.9604 97.4163 76.8271 96.8277C75.7961 96.293 74.9116 92.4673 75.5352 91.275C76.1578 90.0826 78.1092 88.9672 79.7264 88.8603C80.3429 88.8017 82.097 88.0549 83.6123 87.1358C85.128 86.2169 86.9372 85.354 87.6616 85.2079C88.8991 84.948 88.8453 84.9223 85.7118 83.5843C80.8669 81.5471 78.4435 80.9864 75.543 81.3137C72.8742 81.5707 72.873 81.5682 72.0084 83.8216C71.2539 85.9898 71.1055 86.1501 69.3835 86.1894C68.3812 86.2292 67.213 86.0839 66.8042 85.866C66.0393 85.4578 65.7634 86.4551 65.6477 90.0123C65.5729 91.6386 65.9657 92.5143 67.1325 93.7961C68.1006 94.8305 70.399 96.4676 73.1576 98.094C74.6658 98.9745 76.1742 99.8519 77.6824 100.727C77.7574 100.372 77.8325 100.016 77.9077 99.6606ZM65.6274 79.7514C65.7861 82.1283 65.84 82.1563 66.4666 81.1094C67.3136 79.656 69.8181 79.2346 71.2018 80.3022C71.9349 80.8821 72.7146 81.0096 73.9513 80.7596C75.3288 80.4886 75.5082 80.3929 74.6484 80.1771C74.0619 80.0579 71.87 79.0426 69.7969 77.9339C66.5622 76.2022 66.0232 75.9986 65.7525 76.6184C65.5724 76.951 65.5069 78.3974 65.6274 79.7514ZM68.1172 83.2792C67.6174 84.5846 67.6693 84.6123 68.6447 84.1313C69.2384 83.8758 69.9776 83.2215 70.2733 82.6647C70.7857 81.6994 70.7546 81.6356 69.7158 81.7495C69.0102 81.8501 68.4307 82.446 68.1172 83.2792ZM78.0403 94.6159C79.0177 95.1231 80.7366 92.9367 80.4309 91.6419C80.1826 90.6134 80.1321 90.5871 78.9543 91.349C78.2657 91.7965 77.6265 92.6485 77.5287 93.2135C77.4308 93.7784 77.6804 94.429 78.0403 94.6159ZM98.3956 113.163C96.9484 113.454 94.571 112.412 93.2904 110.995C92.1958 109.721 92.5614 109.389 94.7086 109.882C95.7662 110.097 97.8104 110.161 99.3427 109.961C100.23 109.837 101.117 109.714 102.004 109.591C101.609 110.143 101.213 110.696 100.817 111.248C100.211 112.164 99.0489 113.029 98.3956 113.163ZM73.5707 124.668C71.7856 125.215 71.9074 125.23 71.6968 123.987C71.5582 123.111 71.8742 122.754 73.2024 122.209C75.1747 121.428 75.4567 121.006 75.3165 118.995C75.285 118.506 75.2536 118.017 75.2222 117.528C74.9675 117.98 74.7128 118.432 74.4581 118.884C73.7852 120.192 69.9141 122.358 69.9545 121.385C69.9474 121.145 70.8505 120.287 71.9984 119.46C73.0755 118.644 74.0409 117.534 74.0977 117.043C74.2047 116.2 74.0125 116.195 71.6598 116.683C70.2698 116.958 69.3818 117.02 69.7111 116.764C70.0407 116.509 70.1156 115.601 69.8538 114.708C69.2765 112.516 70.1377 111.116 72.7483 110.006C75.5384 108.799 75.7149 107.567 73.7041 104.868C72.8568 103.718 72.0165 102.807 71.926 102.855C71.7836 102.876 70.937 103.62 70.0503 104.438C68.238 106.148 66.8485 106.655 67.5298 105.351C67.7439 104.941 67.5818 103.861 67.1293 102.96C66.256 101.221 66.8276 99.3841 68.4213 98.6066C69.1274 98.2649 69.1406 97.9872 68.4391 97.1917C68.0082 96.6331 67.7845 96.1826 67.9463 96.1253C68.1598 96.0953 68.5332 96.3866 68.8676 96.752C69.1505 97.0904 69.9496 97.6993 70.672 98.077C71.5814 98.5998 72.0059 99.2952 72.2566 100.705C72.4169 101.784 73.0957 103.132 73.7032 103.731C74.9176 104.93 76.2974 108.339 75.7306 108.803C75.5115 108.974 75.5957 109.065 75.8279 108.996C76.8024 108.884 78.0053 110.735 78.0346 112.452C78.1409 114.02 77.9742 114.218 76.4031 115.11C75.8257 115.427 75.248 115.744 74.67 116.061C74.9059 116.577 75.1417 117.093 75.3774 117.608C75.7603 118.515 75.9815 119.48 75.8276 119.779C75.6737 120.078 75.8547 120.36 76.2219 120.407C77.2599 120.422 79.1849 122.122 78.8768 122.719C78.5111 123.429 77.9977 123.165 76.888 121.649C76.5955 121.246 76.3027 120.843 76.0098 120.44C75.8414 121.062 75.6731 121.685 75.5047 122.307C75.1215 123.812 74.6786 124.293 73.5707 124.668ZM24.6433 70.2275C24.7538 71.5225 24.7592 71.5213 25.2306 70.7973C25.4745 70.3815 25.7503 69.5695 25.7745 68.9115C25.8982 67.8006 25.9039 67.8027 25.2012 68.3423C24.8567 68.6506 24.6117 69.5112 24.6433 70.2275ZM55.2797 98.3362C55.04 98.779 55.4261 98.9433 58.2048 99.6199C61.5616 100.459 62.2096 100.226 62.9818 98.0198C63.3579 96.935 63.4618 95.9913 63.3071 95.9087C63.1005 95.799 61.6782 96.2335 60.1525 96.8482C58.6271 97.4634 56.9604 97.952 56.4055 97.9874C55.8708 97.9862 55.3795 98.1512 55.2797 98.3362ZM79.9517 114.81C79.9524 115.189 79.8049 115.349 79.6565 115.131C79.4566 114.886 79.3964 113.863 79.4974 112.78C79.7108 109.958 79.6401 109.591 78.0835 107.795C77.2955 106.915 77.0367 106.403 77.5014 106.643C77.9661 106.883 78.8379 107.853 79.3936 108.801C80.0009 109.777 80.717 110.666 81.0262 110.825C82.0567 111.356 81.9949 113.12 80.9346 113.662C80.3624 113.887 79.9511 114.432 79.9517 114.81ZM49.5212 97.6459C49.4965 98.9263 49.9397 99.3613 51.5967 99.5447C53.5022 99.7663 54.0729 99.4515 54.3687 98.035C54.7327 96.3681 54.702 96.3044 53.3429 96.3316C49.9032 96.4694 49.4962 96.5763 49.5212 97.6459ZM0.166335 47.541C-0.579639 46.9388 2.00243 46.1857 3.53054 46.6189C3.68664 46.6571 3.97223 46.8715 4.33911 47.1919C6.11217 49.9294 10.9718 55.6977 11.4253 56.5846C11.4889 56.7604 10.784 57.5193 9.87111 58.2999C7.65491 60.1498 5.02113 58.954 2.44241 52.9442C1.51107 50.737 0.68839 48.4352 0.286877 47.6618C0.241898 47.6074 0.201475 47.5665 0.166335 47.541ZM72.7931 112.585C71.587 113.901 72.1394 114.613 73.7463 113.787C74.398 113.414 75.1202 113.03 75.3717 112.923C75.5714 112.79 75.4358 112.673 75.0484 112.662C74.5383 112.635 74.4469 112.304 74.7362 111.744C75.263 110.596 74.0763 111.119 72.7931 112.585ZM4.78567 51.4484C4.00962 50.6283 4.37986 53.8253 5.24967 54.7963C5.70275 55.3301 6.6809 55.7974 7.41397 55.8826C7.8761 55.9498 8.33781 56.0113 8.799 56.0672C8.31261 55.8458 7.82715 55.6136 7.3434 55.3718C6.56102 54.9762 5.76683 54.0067 5.59355 53.2973C5.3919 52.4915 5.05424 51.7143 4.78567 51.4484ZM88.8318 124.636C88.5595 122.791 89.991 120.645 91.0617 121.199C91.4184 121.383 91.887 122.099 92.093 122.821C92.3984 123.974 92.231 124.171 90.7345 125.195C90.1655 125.547 89.5965 125.899 89.0276 126.251C88.9626 125.713 88.8974 125.174 88.8318 124.636ZM58.2943 111.803C57.4643 113.884 58.9284 114.417 60.6168 112.597C61.4774 111.72 61.5031 111.544 60.6086 111.596C60.0732 111.6 59.4389 111.408 59.2033 111.094C58.9153 110.752 58.5817 111.004 58.2943 111.803ZM63.376 122.998C64.0552 123.35 64.2949 123.142 64.4983 122.112C64.6707 121.396 64.9013 120.568 64.9653 120.317C65.2809 119.582 63.5027 120.837 63.0178 121.769C62.6943 122.264 62.8534 122.726 63.376 122.998Z" fill="#067C0B"/>
</svg>
