<svg width="374" height="279" viewBox="0 0 374 279" fill="none" xmlns="http://www.w3.org/2000/svg">
<path d="M304.318 148.077C306.841 146.601 307.834 143.601 309.026 135.633C310.984 123.829 310.488 125.084 331.835 103.804C331.925 103.711 332.015 103.619 332.105 103.526C339.93 95.4398 347.679 85.118 353.675 74.0026C345.914 78.4997 354.401 67.0046 361.334 53.3643C362.648 51.3757 364.015 49.2039 365.382 46.8411C369.481 39.2013 371.748 32.6234 373.151 27.4879C373.793 26.336 372.16 23.664 370.616 23.5352C369 23.5607 367.424 18.6921 367.919 13.6538C368.239 10.4331 367.991 9.69544 367.489 8.93765C366.961 8.24229 366.089 7.75967 364.353 6.8892C362.324 5.80276 360.243 4.01814 359.072 2.26768C358.16 1.00958 357.646 0.3529 357.318 0.10608C357.318 0.10608 357.318 0.10608 357.318 0.10608C356.97 -0.14333 356.835 0.0403826 356.555 0.745323C356.188 1.40962 356.474 4.33442 357.008 7.61479C357.744 10.7726 357.263 14.2254 356.196 14.5109C355.544 18.7466 354.441 23.8679 352.221 29.8579C351.931 31.9353 351.521 34.1098 350.96 36.3722C349.71 40.1957 348.366 43.6848 347.143 46.8306C342.029 59.4593 338.593 67.7024 343.863 66.1178C340.496 73.7534 336.095 80.5767 331.1 86.2124C320.239 98.1566 317.276 98.9887 318.482 91.9177C319.805 84.1135 316.966 78.5161 308.788 72.7652C302.493 68.3659 301.29 67.8913 302.033 70.7122C306.055 85.0375 307.08 92.6706 306.013 93.6652C305.197 94.1392 307.312 95.8496 310.832 97.0927C312.935 97.8982 315.05 98.6885 317.177 99.4617C313.251 102.808 309.394 105.967 305.63 108.98C295.79 116.909 287.065 119.897 280.836 118.635C279.827 118.425 277.46 115.016 275.699 111.022C271.565 102.388 265.488 92.9699 263.777 92.6431C262.923 92.4789 263.241 95.3394 264.191 98.8324C264.623 100.745 265.014 103.019 265.219 104.997C265.514 106.483 265.682 107.791 265.606 108.6C265.432 111.19 265.105 110.496 264.068 106.306C263.738 104.968 263.43 103.73 263.131 102.586C261.704 94.5201 260.247 90.7817 257.53 88.2873C254.042 85.17 253.451 86.2658 255.425 93.6833C255.595 94.2235 255.781 94.7982 255.985 95.4079C257.078 98.9394 257.772 102.323 257.271 102.539C256.379 103.346 254.043 97.1147 253.032 90.9194C252.93 90.0803 252.849 89.2419 252.792 88.4213C252.523 83.9812 250.895 82.5269 245.023 81.6681C244.826 81.6366 244.623 81.6062 244.416 81.5767C243.234 81.34 240.113 79.7274 237.509 77.9045C231.504 73.5982 230.72 73.7313 233.163 78.8384C234.32 81.1235 235.915 86.4177 236.83 90.5129C237.725 94.784 239.068 98.2301 239.922 98.3486C240.607 98.4435 241.236 99.3901 241.172 100.41C241.119 101.261 240.069 101.464 239.082 100.645C237.913 99.9737 239.657 102.447 242.876 106.314C247.056 111.347 250.403 113.482 254.456 114.258C259.497 115.222 259.654 115.418 255.743 115.805C254.316 115.983 252.874 116.179 251.42 116.39C252.825 116.976 254.227 117.566 255.624 118.162C260.03 119.92 267.316 119.95 267.286 118.265C267.288 117.791 264.904 115.498 262.177 113.312C253.315 106.655 239.89 90.4926 241.392 87.5852C242.879 84.5536 245.607 86.4592 245.302 90.1412C244.799 95.9226 266.926 116.093 273.974 118.362C276.236 119.081 278.007 120.47 278.055 121.189C278.11 122.054 276.08 121.92 273.443 121.201C269.839 120.265 266.852 121.173 259.772 126.782C256.6 129.206 253.241 131.824 249.648 134.568C252.134 134.393 254.59 134.228 257.012 134.087C269.522 133.414 275.309 131.298 277.859 126.213C278.497 124.965 279.64 123.868 280.904 123.115C285.382 120.106 291.716 118.148 293.199 120.189C294.287 121.672 290.982 125.263 286.11 129.129C279.783 133.66 255.144 151.396 248.641 150.446C244.864 149.683 243.949 150.207 243.92 153.669C243.753 156.496 241.429 159.386 235.981 162.555C232.801 164.271 228.39 165.932 222.636 167.451C212.21 170.156 208.148 167.971 201.746 157.417C196.938 149.824 196.922 149.449 200.833 146.394C205.8 142.474 207.683 136.534 205.618 131.039C204.087 126.962 203.987 126.939 200.299 132.924C195.239 140.745 194.746 141.757 198.533 140.059C201.308 138.988 201.231 139.333 198.276 142.619C197.096 143.907 195.898 145.186 194.683 146.457C194.47 144.168 194.232 141.887 193.97 139.614C193.489 135.895 192.452 133.169 191.407 133.571C190.471 134.196 190.463 133.636 191.496 132.673C192.53 131.708 192.785 129.574 192.158 127.912C191.293 125.806 191.352 124.918 192.521 125.284C193.523 125.598 194.751 127.795 195.407 130.017C196.106 133.36 196.68 133.916 198.418 132.385C201.63 129.605 202.514 124.539 200.134 123.893C199.113 123.612 196.418 119.935 194.158 115.866C192.889 113.404 191.61 110.948 190.321 108.498C189.455 110.981 188.544 113.463 187.584 115.942C186.071 120.07 184.722 127.402 184.41 132.31C183.778 141.012 183.576 141.218 180.485 138.907C178.842 137.724 175.088 135.688 172.202 134.458C167.226 132.324 167.372 132.145 170.735 128.241C173.746 124.727 174.026 123.178 172.913 118.57C172.052 115.504 170.864 109.67 169.962 105.637C169.485 103.17 168.98 100.712 168.449 98.2647C166.474 99.9897 164.468 101.677 162.43 103.326C157.083 107.752 155.957 107.83 155.126 104.937C153.448 98.3018 152.876 105.575 154.242 113.918C155.372 120.997 158.183 125.926 168.571 135.705C168.727 135.781 168.224 138.571 167.586 141.926C167.46 142.481 167.331 143.035 167.199 143.589C166.831 145.075 166.437 146.561 166.02 148.047C165.23 145.252 164.415 142.467 163.574 139.692C161.905 134.267 157.551 127.328 152.353 120.727C141.437 106.296 141.292 103.401 142.715 95.9118C142.814 95.3885 142.893 94.8781 142.951 94.374C143.887 89.9416 143.404 86.0166 141.12 78.6245C139.435 72.694 137.056 67.4412 136.161 66.8427C135.256 66.2483 133.985 63.5159 133.362 60.8113C132.159 55.7733 132.141 55.7021 130.222 62.7419C129.832 64.0116 129.5 65.2698 129.23 66.5241C129.183 75.2106 130.477 84.9451 137.685 96.9714C139.375 99.8942 141.264 103.918 141.885 105.957C142.838 109.463 142.62 109.535 140.08 106.313C133.211 97.4143 133.011 97.1441 126.689 97.5382C120.878 97.984 120.33 97.5447 119.693 93.8573C118.372 86.8119 118.73 82.66 120.734 81.3069C121.676 80.4482 122.799 78.6643 123.147 77.1051C124.038 73.569 121.929 63.5012 120.503 61.7051C119.891 60.9123 119.365 59.235 119.077 57.7854C118.873 56.4495 118.135 54.5608 117.408 53.5201C116.757 52.5955 116.221 51.2868 116.227 50.5557C116.231 49.9457 115.905 48.8751 115.443 48.1727C114.972 47.4723 114.777 50.1361 114.253 54.231C113.205 62.1699 112.829 70.0887 116.202 77.35C117.17 79.5272 117.968 83.8416 117.879 87.2389C117.854 93.2641 117.7 93.4135 115.71 89.7896C114.703 87.9808 111.628 82.5207 109.133 77.8252C105.089 70.1571 104.985 68.6128 105.581 62.763C106.594 53.1606 105.344 48.7516 102.055 41.5641C100.419 38.0325 98.6331 33.2075 98.0573 31.0572C97.0434 27.266 97.0064 27.2523 96.4806 31.688C94.0758 48.6752 94.0069 58.4723 100.695 66.4365C102.808 69.2528 106.702 75.6496 109.518 81.0668C111.209 84.3149 112.965 87.5369 114.801 90.7262C113.388 89.5597 111.998 88.3724 110.62 87.1677C107.916 84.7531 106.441 82.4964 106.259 80.4985C105.742 75.4919 102.443 72.5477 96.8671 72.4372C94.9935 72.3993 93.0612 72.3364 91.0792 72.2486C92.2323 73.9986 93.3916 75.7404 94.5696 77.4725C96.5076 80.3344 99.3567 82.9374 100.983 83.3419C106.255 85.0227 115.461 92.6575 118.717 97.9706C120.303 100.606 124.738 110.232 128.826 119.023C131.33 124.371 133.96 129.673 136.724 134.921C132.691 131.521 128.879 127.966 125.257 124.294C115.085 113.844 114.63 113.019 107.22 110.951C102.963 109.886 98.8707 107.889 98.0733 106.861C96.873 105.318 96.6804 105.561 97.1969 107.965C97.5075 109.851 100.238 111.614 105.465 113.104C111.397 114.684 114.926 116.911 120.749 122.097C123.347 124.392 126.028 126.627 128.804 128.79C126.901 128.242 125.016 127.66 123.148 127.047C117.657 125.242 102.974 124.395 101.337 126.151C100.146 127.523 106.501 137.284 110.644 139.784C115.092 142.558 128.08 138.892 128.869 134.613C129.491 132.116 130.421 132.408 134.911 136.002C137.963 138.421 140.143 140.796 139.703 141.526C139.359 142.107 135.419 142.611 131.076 142.309C122.666 141.751 111.724 145.319 104.496 151.443C102.037 153.588 98.6428 155.291 97.0811 155.372C91.2072 155.779 94.1642 157.805 104.568 159.998C118.942 162.845 127.854 160.288 133.657 152.236C136.217 148.697 139.083 145.494 140.275 144.875C143.091 143.57 147.357 149.288 150.877 159.575C152.308 164.022 154.487 168.029 155.81 168.729C156.958 169.343 157.57 171.788 156.962 174.285C155.993 178.549 156.01 178.571 158.925 174.425C161.204 171.462 160.835 169.192 158.162 165.497C154.705 160.362 154.435 160.893 168.471 167.208C172.609 169.028 176.867 170.704 181.292 172.193C182 172.47 182.71 172.745 183.421 173.016C182.942 173.209 182.462 173.4 181.981 173.59C172.695 177.342 163.242 180.204 153.883 182.282C118.743 189.05 111.336 185.827 108.928 181.987C107.577 179.49 106.806 179.499 105.339 181.897C103.787 184.118 97.9398 184.638 82.1422 182.371C70.6901 180.854 59.5191 178.774 56.8064 178.716C50.4308 178.219 49.2957 176.668 53.2161 173.475C55.2486 171.82 56.6147 167.291 57.0386 161.26C57.2303 158.074 57.4208 154.887 57.6102 151.701C55.7182 153.291 53.8145 154.875 51.9042 156.453C46.0381 161.297 42.6557 168.969 45.1663 172.34C47.2671 175.145 43.2877 177.685 39.3868 175.903C36.7524 174.668 36.468 173.106 37.9811 166.708C40.0096 158.093 39.3852 154.332 34.511 145.055C31.8089 139.621 31.2276 139.417 29.8334 141.898C28.9039 143.552 27.1707 145.863 26.0097 147.488C23.1702 150.927 22.1124 157.894 23.6233 162.275C24.6796 165.457 24.4103 165.675 22.0454 164.481C20.2268 163.739 19.0029 160.922 18.3682 156.025C18.0512 153.577 17.7318 151.128 17.4095 148.68C14.5267 147.521 11.6241 146.375 8.69979 145.248C5.82518 144.084 2.91847 142.939 2.20809e-05 141.82C0.710871 144.373 1.41064 146.927 2.10044 149.483C5.30016 160.803 10.0861 166.139 17.8377 166.861C21.4834 167.193 25.1578 168.437 26.0783 169.7C26.998 170.963 29.9818 173.007 32.6942 174.383C39.306 177.543 37.1746 179.673 26.92 180.469C23.0746 180.72 18.2623 181.62 16.3132 182.389C12.3747 183.918 7.11694 193.425 9.52872 194.221C10.3958 194.58 10.4166 195.468 9.54964 196.249C8.68055 197.03 7.47093 201.319 7.04315 205.825C6.61214 210.331 6.45323 214.362 6.73813 214.777C7.02636 215.191 11.0528 213.656 15.9904 211.129C26.4589 206.285 30.9513 200.551 30.1322 191.301C29.5474 182.332 41.3024 175.433 51.2279 178.936C56.324 180.693 55.5589 182.002 49.4937 182.145C43.8191 182.205 35.8706 188.635 37.0052 192.212C37.2972 193.773 37.216 195.413 36.6765 195.85C35.3276 196.941 32.2352 213.156 33.1648 214.421C33.5768 214.982 38.43 212.838 44.0439 209.743C55.0191 203.764 58.569 199.173 60.4402 188.752C60.8246 186.389 62.3063 184.273 63.7377 183.791C67.5738 182.761 101.336 189.363 103.08 191.466C103.6 192.728 104.972 192.982 106.077 191.967C107.68 190.56 123.082 190.577 125.116 191.93C125.416 192.149 119.922 198.344 112.089 205.349C101.477 214.772 98.1592 217.95 99.1215 219.891C100.075 221.544 100.68 221.298 101.188 219.414C101.689 217.78 107.151 212.305 112.964 206.837C122.78 197.409 123.049 196.855 120.938 202.323C119.431 205.567 118.75 209.255 119.08 210.753C119.914 213.79 131.23 222.827 132.581 221.624C134.613 219.769 132.587 206.933 130.205 205.268C128.766 204.267 127.276 201.738 126.718 199.636C125.918 195.892 126.21 195.697 132.737 192.97C136.727 191.533 144.79 189.369 151.076 187.656C160.133 185.515 174.847 182.688 185.244 180.215C191.158 179.049 195.476 178.481 195.891 179.475C196.377 180.637 195.399 184.804 193.804 188.622C192.968 190.609 192.352 192.524 192.054 194.036C191.627 195.622 191.587 196.767 192.081 197.112C192.502 197.374 192.982 197.32 193.501 196.973C194.311 196.409 195.185 194.908 195.995 192.619C198.596 184.965 201.823 184.676 228.706 175.007C233.076 173.386 237.301 171.664 241.376 169.866C266.6 156.768 280.22 145.393 289.286 139.614C290.84 138.562 292.137 137.769 293.121 137.228C295.791 135.435 297.698 134.18 297.804 134.201C298.146 134.268 298.386 137.797 298.476 142.044C298.508 142.57 298.541 143.065 298.576 143.529C300.362 148.831 301.098 149.511 303.124 148.782C303.486 148.578 303.883 148.343 304.318 148.077ZM101.549 58.9643C102.185 62.3491 102.049 63.2221 101.156 61.8255C100.504 60.8093 99.7601 56.2856 99.4138 51.7807C98.7698 42.3978 99.347 38.5845 100.287 47.0828C100.637 50.2088 101.329 52.8495 101.92 52.9906C102.479 52.8813 102.459 53.2545 101.789 53.6098C101.249 53.9683 101.063 56.4556 101.549 58.9643ZM85.4144 102.799C90.9798 103.575 91.7412 103.07 91.7833 99.8118C91.7893 94.7927 87.4037 85.4617 85.8363 87.3419C85.1388 88.1691 84.5626 87.8706 84.3144 86.7166C84.0771 84.8107 78.4676 82.0797 72.0272 80.5917C68.9049 79.8591 68.7377 80.2179 70.8569 86.4022C74.6421 97.8164 78.3963 101.886 85.4144 102.799ZM138.884 95.4846C139.5 97.1307 139.571 98.0213 139.092 97.6334C137.541 96.3054 135.508 83.2776 134.303 76.8222C134.186 74.4975 134.275 72.8933 134.752 72.6909C135.211 72.5286 135.818 75.6387 135.966 79.6969C135.975 79.8861 135.984 80.0703 135.992 80.2496C136.794 86.0124 136.93 86.4953 137.918 84.1585C137.941 84.1189 137.963 84.0785 137.986 84.0375C139.265 82.0404 139.443 82.2418 138.734 85.8158C138.704 86.2038 138.665 86.6344 138.617 87.1098C138.356 90.1868 138.277 93.8343 138.884 95.4846ZM103.269 95.5331C106.899 110.28 115.034 115.755 116.067 105.462C116.356 101.919 115.687 100.608 112.5 97.8736C110.359 95.9698 106.88 92.9093 104.848 90.8984C103.616 89.7299 102.392 88.5495 101.181 87.3574C101.86 90.0858 102.556 92.8111 103.269 95.5331ZM85.8176 94.1394C86.0642 98.6892 85.7488 99.3011 83.5606 98.371C79.6741 96.6778 75.1489 91.54 77.1307 91.1084C77.9589 90.9387 79.8079 92.2515 81.127 94.1323C83.6777 97.7603 84.937 97.0922 85.3903 92.2178C85.5508 90.3414 85.7187 91.11 85.8176 94.1394ZM65.7853 114.921C63.6918 116.862 78.9822 122.062 84.1133 120.972C89.2938 119.876 98.0143 111.648 96.5102 109.826C94.6913 107.766 88.7199 106.222 84.0312 106.474C80.0483 106.826 69.8892 111.488 65.7853 114.921ZM163.871 158.121C163.827 159.328 162.616 159.59 160.973 158.776C155.927 156.496 137.811 134.031 131.207 119.931C129.028 115.66 126.941 111.352 124.944 107.012C126.694 107.633 128.458 108.222 130.238 108.773C133.293 109.672 136.39 109.647 137.17 108.823C138.929 107.021 142.646 110.313 145.675 115.835C147.064 118.441 148.35 120.023 148.514 119.579C148.729 118.99 150.73 121.396 153.109 124.845C157.166 130.501 162.127 148.24 160.011 151.955C159.499 152.907 160.015 154.199 161.315 154.845C162.612 155.489 163.825 157.076 163.871 158.121ZM165.584 123.738C164.586 124.565 163.532 124.991 163.225 124.844C161.732 124.091 161.097 112.686 162.196 111.658C164.654 109.635 166.058 113.418 164.518 118.32C163.511 121.475 163.668 123.035 165.178 122.817C166.475 122.681 166.581 122.909 165.584 123.738ZM124.422 151.429C114.672 155.779 114.085 155.615 116.925 152.362C118.158 150.913 122.079 149.403 125.578 148.788C127.726 148.445 129.865 148.064 132 147.642C129.519 148.959 126.992 150.22 124.422 151.429ZM302.711 93.5104C304.338 93.6882 304.629 92.0399 303.541 86.0066C301.241 74.6592 297.34 67.0738 294.24 67.3333C292.782 67.3805 290.508 66.7793 289.528 65.9503C286.74 63.6666 286.639 66.1497 289.28 70.7941C290.448 72.9165 291.304 75.9199 291.1 77.3478C290.693 78.9314 289.809 77.547 288.981 74.3719C287.242 68.5528 282.378 64.2159 280.136 66.5649C278.263 68.6324 271.911 66.9259 268.963 63.7835C265.096 59.4464 264.127 61.7206 267.611 67.4332C269.17 70.3459 269.922 72.6003 269.231 72.4813C268.539 72.3624 269.191 74.0662 270.506 76.065C271.972 78.2662 272.518 80.6686 271.85 81.6162C271.035 82.3595 272.614 84.942 275.16 86.9849C277.855 89.2296 279.485 91.4677 278.836 92.2461C277.315 94.1148 286.206 95.3275 290.649 93.605C296.009 91.8215 293.918 88.8251 287.541 89.172C284.112 89.1995 282.248 88.5288 282.429 87.3067C282.585 86.2569 284.117 85.6015 285.879 85.8621C288.549 86.0756 288.607 85.7141 285.645 82.5865C283.939 80.7188 280.803 77.5612 278.75 75.6371C274.947 72.1897 274.943 72.1981 278.738 73.1372C280.81 73.633 284.87 76.7166 287.623 80.158C293.723 87.8521 299.808 93.1991 302.711 93.5104ZM201.388 161.408C206.672 169.176 206.789 169.431 201.935 169.848C199.274 169.895 192.25 169.162 186.506 167.907C183.677 167.225 180.876 166.498 178.105 165.725C177.36 165.55 176.618 165.368 175.88 165.182C176.224 164.547 176.563 163.911 176.898 163.274C177.536 161.942 178.158 160.608 178.766 159.274C180.967 154.411 180.658 152.187 176.377 145.673C174.786 143.114 173.202 140.55 171.624 137.983C173.451 138.763 175.296 139.523 177.158 140.262C184.666 143.293 194.951 151.959 201.388 161.408ZM41.8393 204.515C41.4604 204.592 42.117 202.267 43.3202 199.504C44.5865 196.24 47.6838 193.085 51.4459 190.752C57.4847 187.036 57.5044 187.043 49.978 195.771C45.7677 200.709 42.0803 204.545 41.8393 204.515ZM16.5562 202.96C14.6954 205.255 13.0836 206.698 12.6897 206.141C12.3959 205.724 12.9718 204.53 14.1008 203.533C15.2292 202.536 15.27 201.146 14.2998 200.642C12.9512 199.585 14.4703 197.488 20.189 192.398C24.3682 188.631 26.7061 187.167 24.9306 189.089C23.1616 191.012 21.7679 194.889 21.9359 197.448C22.1027 200.007 21.5952 201.335 20.8953 200.356C20.1961 199.376 18.7018 200.194 16.5562 202.96ZM308.751 102.683C312.637 99.6833 312.029 99.5615 301.486 98.713C296.789 98.3044 296.676 97.9154 299.926 97.0507C303.793 95.864 303.827 95.672 300.042 95.2299C295.355 94.5441 284.636 96.3029 284.397 98.0101C284.293 98.7059 286.169 100.457 288.832 101.791C295.054 105.527 304.442 105.99 308.751 102.683ZM111.097 278.613C112.409 278.795 126.187 257.771 126.373 255.147C126.361 253.378 127.384 252.809 129.501 253.405C131.621 253.999 133.209 252.214 134.601 247.14C139.513 231.274 125.461 213.148 115.389 218.859C101.948 226.339 94.2108 247.748 103.077 258.367C103.376 258.874 105.262 263.544 107.05 268.826C108.996 274.233 110.747 278.616 111.097 278.613ZM116.001 259.447C115.635 260.72 115.101 261.619 114.766 261.378C111.207 254.161 109.971 248.497 111.761 247.834C112.91 247.433 114.757 245.237 115.596 243.064C116.943 239.468 116.251 239.573 108.515 242.719C105.665 243.887 102.84 245.017 100.024 246.114C102.82 244.386 105.611 242.627 108.412 240.83C114.545 236.713 116.31 234.704 115.208 232.862C114.269 231.38 114.44 229.987 115.225 229.582C116.014 229.178 117.588 226.595 118.656 223.895C120.165 219.028 120.455 219.008 120.691 223.666C121.042 226.171 122.035 228.894 123.015 229.592C124.156 230.405 124.341 231.276 123.542 231.958C119.535 234.344 118.864 236.628 121.499 238.517C123.147 239.691 124.858 242.611 125.401 244.976C126.497 249.957 123.877 248.997 121.525 243.312C120.341 239.966 119.727 240.755 118.518 247.999C117.822 252.823 116.543 258.042 116.001 259.447Z" fill="#067C0B"/>
</svg>
