<svg width="357" height="541" viewBox="0 0 357 541" fill="none" xmlns="http://www.w3.org/2000/svg">
<g opacity="0.19" filter="url(#filter0_f_0_1)">
<path d="M201.078 26.6338C203.857 31.3293 205.772 35.864 205.532 36.708C205.179 37.3237 206.183 37.2445 207.678 36.3026C210.137 34.9314 210.459 35.6075 209.885 41.1711C209.298 47.2186 208.59 47.9564 200.846 51.5293C192.445 55.3826 192.375 55.508 190.543 64.9293C188.281 75.9056 189.174 78.8714 195.063 82.2643C198.628 84.32 199.555 84.3649 199.543 81.8991C198.896 66.9401 202.003 53.6695 205.126 57.755C205.981 58.7381 205.781 60.7533 205.003 62.1068C203.583 64.5655 203.776 64.6761 208.625 63.704C211.32 63.1284 215.76 61.7597 218.313 60.6138C219.901 59.9475 221.506 59.2918 223.095 58.6274C223.314 61.7085 223.528 64.7875 223.763 67.8806C224.133 73.0222 223.762 79.5462 223.041 82.4134C222.255 85.4064 222.289 88.2219 223.211 88.763C225.56 90.138 231.183 87.686 233.134 84.3876C234.089 82.8085 237.321 80.9245 240.383 80.0994C245.666 78.7783 245.947 78.286 244.094 75.5338C241.661 71.9471 247.381 65.7646 249.738 68.9806C250.539 70.1175 249.823 71.8397 248.222 73.1992C244.721 75.8112 246.698 77.1419 251.878 76.2892C252.439 75.9882 253.232 75.7176 254.146 75.4134C257.134 74.3813 261.39 74.1045 263.13 74.8194C265.155 75.5402 265.366 76.167 263.477 76.5192C262.17 76.8927 259.07 80.6611 256.792 84.9212C253.629 91.1365 251.699 92.7862 246.746 93.4724C245.363 93.6999 243.183 93.5979 241.397 93.7704C229.964 92.6823 210.815 88.3474 206.853 84.9792C203.707 82.4997 202.815 82.4782 201.313 85.0532C199.38 88.3589 199.947 111.33 202.048 112.563C202.777 112.988 207.38 109.594 212.467 105.007C220.998 97.5005 227.68 93.2016 226.065 96.3695C225.649 97.1145 221.056 100.996 216.036 105.125C210.979 109.233 206.676 112.801 206.622 112.934C206.457 113.166 208.516 113.876 211.249 114.495C213.847 115.033 218.227 114.488 221.132 113.406C223.285 112.45 226.634 112.139 230.284 112.303C235.746 112.047 244.132 114.369 249.207 117.539C252.383 119.507 257.015 121.625 259.992 122.566C267.578 124.873 266.816 125.918 257.31 128.447C254.438 129.217 251.618 130.038 248.833 130.895C251.919 132.479 255.054 134.138 258.278 135.929C263.475 138.929 268.062 142.164 267.738 142.635C267.468 142.964 262.718 141.372 257.521 139.708C252.076 137.857 245.574 137.229 242.771 137.804C235.822 139.214 224.654 136.906 217.699 133.293C217.243 133.05 216.792 132.795 216.349 132.53C210.406 128.983 208.641 128.774 201.754 130.648C199.204 131.4 196.548 132.092 194.02 132.86C193.364 136.369 192.756 139.906 192.116 143.426C189.922 155.139 190.007 161.128 192.319 157.549C193.498 155.552 198.915 155.458 203.545 156.9C204.793 157.267 206.051 157.792 207.138 158.439C209.078 159.59 213.316 163.439 216.293 166.948C218.216 169.134 220.125 171.336 222.013 173.56C219.196 173.045 216.391 172.569 213.595 172.121C207.189 171.294 203.786 169.81 198.177 165.853C198.095 165.795 198.013 165.736 197.93 165.677C190.455 160.384 190.313 160.49 189.59 164.179C189.119 166.19 189.275 173.439 189.648 180.078C189.651 180.134 189.654 180.191 189.658 180.247C190.142 187.145 189.916 193.283 189.477 194.016C188.172 196.229 191.951 197.579 201.916 198.797C208.427 199.721 210.96 199.402 211.013 197.557C211.006 192.978 217.095 185.573 223.6 182.91C228.706 180.864 229.761 180.915 229.151 183.253C228.61 184.778 228.855 188.06 229.597 190.529C230.35 192.997 230.486 196.85 229.627 198.882C228.865 201.164 228.535 203.077 228.827 203.313C229.263 203.677 233.033 204.997 236.729 206.579C236.99 206.697 237.236 206.81 237.469 206.918C240.367 208.049 241.817 210.372 241.272 210.829C240.8 211.533 238.344 210.623 234.577 210.868C233.67 210.99 232.818 211.195 232.269 211.696C226.216 212.006 218.538 209.668 215.407 205.686C213.306 203.173 210.442 201.896 204.065 201.172C199.366 200.681 193.647 200.008 191.537 199.729C187.953 199.223 188.038 199.593 191.049 204.25C192.867 207.185 197.305 212.62 200.896 216.565C202.952 218.96 204.896 221.345 206.577 223.635C211.055 224.438 215.612 225.731 217.665 225.113C215.927 221.755 217.23 221.439 218.237 221.736C219.365 222.093 220.757 223.252 222.164 224.688C225.06 227.698 227.789 231.376 231.623 236.987C232.307 237.652 232.984 238.344 233.654 239.06C237.991 239.834 242.355 240.969 246.703 242.402C255.171 245.287 264.027 251.402 271.343 260.192C275.104 264.597 278.702 269.222 282.169 273.961C283.831 272.07 285.471 270.134 287.086 268.143C293.528 260.479 299.607 257.576 308.556 260.818C315.426 263.167 318.771 268.039 313.941 268.207C312.807 268.255 311.856 269.305 311.896 270.554C311.917 271.202 311.323 273.121 310.36 275.358C309.836 276.772 309.192 278.295 308.476 279.756C303.876 288.86 297.917 288.112 288.318 279.835C285.484 277.586 282.943 276.161 281.666 275.806C281.242 275.697 280.956 275.697 280.843 275.819C280.805 275.862 280.787 275.919 280.788 275.99C280.8 279.106 285.353 284.447 294.688 295.822C297.615 299.442 300.444 303.182 303.184 307.009C305.324 305.782 307.457 304.499 309.579 303.166C317.128 298.214 325.568 300.869 333.774 312.648C335.471 315.041 337.14 317.453 338.781 319.881C337.034 320.258 335.287 320.621 333.54 320.969C330.686 321.6 325.348 323.098 321.92 324.285C315.684 326.281 315.231 325.637 305.824 313.866C300.424 306.956 293.318 298.567 290.379 294.667C285.879 289.135 284.728 288.694 284.506 291.743C284.006 298.102 289.536 307.528 299.565 319.526C304.771 326.052 307.861 331.387 306.763 331.114C305.518 330.823 305.602 332.334 307.202 334.73C310.711 340.071 310.855 349.109 307.59 360.166C306.639 363.256 305.682 366.28 304.73 369.238C303.732 367.551 302.733 365.858 301.732 364.161C300.094 361.345 298.226 356.362 297.703 353.158C296.531 346.602 300.197 329.684 303.033 330.233C303.858 330.435 301.482 326.351 297.319 321.291C293.17 316.223 288.862 310.42 287.893 308.365C285.329 302.94 285.597 305.439 285.842 322.652C285.93 339.587 286.27 352.777 288.17 363.241C289.942 372.072 287.397 372.524 284.876 363.745C282.985 357.535 281.981 358.449 279.417 368.138C278.081 373.552 277.389 372.098 276.635 361.087C276.187 353.209 276.64 349.325 278.856 344.33C283.109 333.148 285.959 331.43 282.014 290.838C281.338 285.834 279.799 280.709 277.495 275.871C270.635 261.991 257.444 250.228 243.785 246.849C239.17 245.553 234.116 244.105 232.724 243.354C231.959 242.927 230.074 240.898 227.488 238.506C223.595 232.65 220.203 227.626 216.921 224.558C214.692 222.423 212.363 222.567 215.12 227.451C214.022 228.097 212.165 227.699 211.263 227.862C210.288 227.953 209.973 228.275 210.227 228.815C210.729 229.948 211.485 231.134 211.238 231.018C208.659 228.214 208.193 226.94 208.073 226.538C208 226.139 208.438 226.562 209.062 227.444C210.382 229.321 212.267 232.569 215.373 238.278C215.984 239.396 216.637 240.639 217.444 242.196C220.518 245.681 222.834 250.55 223.123 252.086C223.925 255.507 216.052 265.933 212.725 266.096C211.875 266.168 210.395 267.183 209.625 268.436C208.325 270.33 208.908 270.735 212.355 271.522C214.646 271.884 217.259 273.249 218.142 274.399C218.52 274.875 218.91 275.709 219.28 276.781C221.182 280.954 221.674 290.547 220.323 290.428C218.527 290.216 217.9 297.021 219.391 299.69C221.893 304.087 218.929 303.019 212.654 297.844C203.541 290.577 200.4 283.951 202.725 277.238C202.746 277.17 202.766 277.104 202.785 277.038C203.498 273.633 203.104 272.288 200.78 270.305C199.144 268.945 196.817 266.397 195.483 264.699C194.139 262.847 192.535 261.771 191.834 261.873C190.21 262.157 187.943 268.156 185.235 277.313C182.584 282.792 179.059 290.434 178.07 295.125C177.491 298.037 177.782 301.737 178.928 304.693C180.723 309.087 181.447 309.579 188.29 310.396C192.528 311.032 196.974 312.546 199.17 314.208C203.157 317.494 207.799 327.403 206.806 330.526C206.419 331.783 206.712 336.054 207.181 340.122C207.578 342.582 207.958 345.069 208.328 347.58C205.669 346.424 203.011 345.27 200.352 344.117C188.043 339.182 183.667 330.711 180.299 315.203C179.334 310.928 178.236 306.881 176.981 303.125C175.8 305.308 174.556 307.574 173.253 309.919C168.215 319.127 164.415 333.529 161.482 357.567C160.456 367.093 160.05 373.02 160.536 378.421C160.687 383.775 161.599 388.479 163.501 394.787C168.206 409.438 169.191 409.515 176.413 410.72C183.757 411.759 184.038 412.608 189.246 424.298C192.233 430.827 195.829 436.135 196.957 436.227C198.797 436.374 198.76 436.8 196.792 438.404C193.449 441.421 180.166 439.989 174.917 435.879C172.503 433.858 167.75 427.373 164.751 421.086C162.935 417.341 161.184 413.487 159.519 409.492C159.457 412.538 159.448 415.529 159.48 418.479C159.467 423.298 160.934 430.543 162.78 434.485C163.831 436.874 164.904 439.23 165.996 441.552C164.758 440.078 163.528 438.582 162.306 437.072C158.783 432.757 158.762 432.745 158.337 438.946C157.991 444.404 158.551 445.117 162.94 445.348C173.451 445.944 178.843 456.434 179.451 473.472C179.613 477.315 179.402 482.659 180.297 490.747C181.183 500.052 185.253 512.972 192.326 522.815C186.655 519.227 181.087 514.184 176.414 508.568C165.96 496.121 162.147 482.647 159.953 473.472C157.495 464.339 156.233 451.636 157.322 428.215C157.836 419.021 156.625 406.743 156.886 385.178C156.949 382.686 157.066 380.132 157.244 377.526C157.397 370.613 157.647 363.984 157.891 357.632C156.369 360.118 154.842 362.678 153.314 365.326C151.237 368.812 149.287 372.701 148.247 375.081C147.9 375.943 147.641 376.637 147.484 377.112C146.763 379.906 146.413 380.145 146.716 377.247C146.734 376.77 146.932 375.933 147.286 374.82C148.197 372.052 150.433 367.299 152.981 362.972C157.638 355.445 159.403 351.463 159.929 346.618C160.827 340.247 160.813 340.199 154.933 350.527C149.852 359.857 146.81 367.49 145.575 374.355C144.089 381.869 144.361 387.907 145.826 394.187C148.585 406.399 150.019 424.753 148.357 435.108C147.417 440.65 147.218 440.78 142.819 431.202C137.791 420.365 136.367 400.595 140.79 385.54C144.549 373.207 143.605 372.45 137.942 383.958C135.722 388.614 131.648 394.236 128.872 396.177C123.857 400.073 107.634 404.324 106.803 402.106C105.87 400.044 121.427 376.763 126.984 372.476C128.195 371.58 129.718 370.898 131.309 370.479C133.455 370.154 135.755 370.236 137.587 370.74C139.412 371.243 141.237 371.745 143.062 372.247C144.753 366.105 146.491 360.323 148.205 354.843C151.078 345.649 155.454 335.714 158.119 331.682C160.7 327.484 165.397 319.044 168.117 313.347C169.859 309.822 171.484 306.482 172.977 303.324C171.222 304.645 169.441 305.986 167.634 307.357C164.669 309.562 160.049 313.619 157.644 316.525C151.848 323.119 145.041 325.538 131.935 324.511C126.378 324.139 121.675 323.443 121.604 323.206C121.525 322.609 138.157 310.62 143.678 307.865C145.641 306.785 152.359 305.092 158.496 304.188C173.693 301.817 173.764 301.539 174.947 296.211C175.742 292.396 175.341 291.961 173.271 292.285C171.788 292.501 168.259 292.798 165.498 292.841C162.573 292.988 157.406 294.863 152.789 297.471C141.739 304.213 136.572 301.621 128.539 290.88C124.12 285.661 123.864 285.237 128.361 286.66C130.104 287.324 134.645 287.838 138.295 287.711C144.396 287.62 145.535 287.719 150.111 290.151C154.916 292.813 155.459 293.025 159.817 291.574C168.304 288.759 175.09 284.051 180.476 277.387C182.408 273.199 184.137 268.731 185.582 264.351C185.988 263.145 184.392 264.771 181.987 268.16C179.44 271.575 176.269 275.045 175.005 275.593C170.924 277.145 163.68 276.655 160.642 274.962C156.62 272.631 152.656 268.436 154.994 267.998C155.964 267.745 156.59 267.069 156.514 266.591C156.449 266.076 157.613 264.014 159.33 263.42C159.688 263.279 160.06 263.184 160.449 263.133C158.231 254.84 158.275 251.986 158.168 249.376C160.454 250.946 162.819 253.135 166.435 258.419C166.836 259.008 167.28 259.709 167.747 260.452C170.355 259.568 172.94 260.182 173.716 261.295C175.227 262.993 173.722 270.699 171.317 272.217C169.663 272.962 158.355 269.646 158.244 268.899C158.195 268.434 157.596 268.219 156.751 268.32C153.792 268.634 157.714 270.485 162.924 272.157C171.871 275.166 176.197 274.623 180.309 268.53C182.365 265.611 186.851 260.707 190.425 257.309C193.894 253.923 196.484 250.989 196.434 250.841C196.38 250.691 193.727 251.704 190.427 253.016C186.613 254.519 184.045 255.094 181.502 255.399C176.88 249.631 172.545 242.36 169.051 242.438C168.393 242.715 167.91 243.649 168.395 246.272C169.087 248.966 169.867 253.19 177.074 262.406C177.351 262.944 177.579 263.414 177.762 263.83C178.295 262.713 178.804 261.563 179.288 260.372C179.207 260.113 179.13 259.857 179.056 259.603C177.403 254.604 179.515 247.843 182.51 244.058C185.574 239.547 187.794 235.043 190.259 234.215C192.661 233.299 194.558 235.064 195.537 240.015C196.252 243.843 197.685 247.28 198.571 246.567C199.462 245.919 200.015 241.596 201.615 237.085C202.602 234.256 203.262 232.222 203.61 230.531C203.791 229.702 203.895 228.976 204.024 228.533C204.176 228.12 204.252 227.893 204.999 228.863C205.57 229.572 206.454 230.91 208.774 233.281C209.521 233.41 207.853 231.224 206.356 229.434C204.769 227.534 202.944 225.491 201.104 223.391C197.391 219.175 193.617 214.699 189.28 209.326C185.059 204.046 182.417 201.039 178.847 198.092C175.329 195.086 171.222 192.549 163.573 188.068C154.871 183.135 145.949 178.804 143.585 178.423C140.098 178.051 141.071 178.769 148.49 183.228C153.373 186.055 157.744 189.263 157.861 190.317C158.026 191.236 156.97 191.44 155.573 190.626C150.404 187.617 151.444 191.337 156.955 195.049C162.255 198.645 162.277 198.662 157.345 197.909C152.899 197.283 151.391 196.231 144.933 189.369C133.614 177.232 114.061 167.83 87.5088 161.735C69.5983 157.611 66.1088 156.456 53.3822 149.259C45.6402 144.882 36.3438 138.979 32.7421 136.291C27.5174 132.361 25.2892 131.264 22.6144 131.87C17.1252 132.842 16.5168 131.517 19.8396 126.058C22.5199 121.704 23.7961 121.122 29.1583 122.362C37.926 124.386 45.1124 128.77 51.5008 136.13C58.0099 143.559 63.8647 147.191 77.4639 151.958C80.7257 153.044 83.9836 154.13 87.2526 155.223C88.2785 152.868 89.3043 150.512 90.3302 148.156C93.3038 141.683 96.3623 120.249 95.0792 115.932C94.6012 114.682 92.4396 111.989 89.7603 109.657C87.3699 107.326 84.623 102.674 83.9328 99.3493C83.1717 96.1468 80.8839 91.918 78.7077 90.0362C75.2162 87.0853 75.7396 87.0544 84.282 90.0888C89.337 91.8045 94.7128 94.3569 95.8981 95.5168C99.6126 99.2499 102.498 87.9971 99.9768 80.0475C98.6643 76.2071 97.9936 72.4037 98.3443 71.7861C98.7639 71.045 98.3958 69.2062 97.4843 67.5496C96.4677 65.9967 95.8053 59.4266 95.6623 52.9875C95.8351 46.5636 94.7396 39.4226 93.2151 37.0939C90.7267 32.9162 90.7069 25.0794 93.1635 24.8372C93.6979 24.6501 94.7079 27.9922 95.095 32.1238C95.8831 37.7858 96.603 39.3337 98.6159 38.6778C100.628 38.0214 100.853 38.4752 99.7349 40.452C98.9036 41.9389 98.092 45.3925 97.9639 48.0914C97.7618 53.8466 101.275 54.2012 104.35 48.7652C107.033 44.0855 124.147 43.4854 131.783 47.8107C137.993 51.3277 138.321 52.821 134.671 57.6041C132.316 60.5114 119.125 60.2151 109.738 57.0287C104.874 55.2563 100.221 54.4207 99.2764 54.8654C97.4809 55.9703 98.5307 68.9559 100.575 71.5796C101.244 72.4468 104.44 74.2542 107.646 75.5788C112.079 77.2717 115.375 77.1797 119.686 75.3803C123.023 74.0079 125.076 73.7043 124.694 74.7926C124.064 75.9041 121.629 77.2972 119.201 77.8797C115.014 79.097 115.048 79.4422 118.352 84.7403C120.178 87.7333 122.444 91.9568 123.586 94.0738C125.076 97.2129 129.017 99.7352 154.334 113.712C177.824 126.838 183.853 130.723 186.382 134.156C189.066 138.019 189.461 138.253 190.491 136.059C198.336 121.399 200.563 87.2251 193.816 83.184C186.51 78.976 185.924 75.0429 189.831 57.4865C190.355 55.3329 189.149 50.3899 187.174 46.809C183.435 40.0953 183.576 39.8507 189.586 28.8981C191.696 25.199 193.806 21.5 195.916 17.8009C197.637 20.7439 199.356 23.6871 201.078 26.6338ZM136.905 440.537C136.541 447.939 134.848 451.516 125.199 472.223C125.005 472.641 124.811 473.057 124.618 473.472C123.355 476.838 122.08 481.682 121.34 488.584C120.296 481.823 119.778 476.893 119.253 473.472C118.774 470.902 118.31 468.296 117.863 465.674C114.584 447.313 114.945 437.251 118.258 425.201C120.563 416.761 126.766 408.982 130.564 409.52C131.832 409.684 133.737 407.156 135.089 403.94C137.285 398.237 137.254 398.28 135.722 405.455C134.666 409.57 134.67 417.532 135.564 423.102C136.589 428.474 137.155 436.096 136.905 440.537ZM163.566 307.661C166.705 305.966 168.883 304.394 168.472 304.285C167.922 304.141 163.182 304.865 157.696 305.99C154.379 306.578 151.053 307.162 147.713 307.756C149.375 308.309 151.037 308.862 152.699 309.417C156.5 310.567 159.346 310.027 163.566 307.661ZM124.488 454.562C127.565 445.222 132.787 420.886 131.258 420.549C130.553 420.472 129.678 423.338 129.38 426.724C129.055 430.371 128.091 433.894 127.029 434.849C125.81 436.047 125.713 435.279 126.488 432.487C127.268 429.695 126.982 428.091 125.708 427.983C123.253 427.661 122.269 431.29 121.99 452.752C121.981 455.812 121.998 458.834 122.037 461.842C122.839 459.42 123.655 456.996 124.488 454.562ZM165.82 267.662C166.874 268.793 167.391 269.509 167.581 269.215C167.769 268.955 167.63 267.623 167.288 265.695C166.893 263.479 166.551 262.762 166.107 262.401C165.661 262.067 165.093 262.153 164.2 262.384C163.31 262.636 163.063 263.038 163.39 263.924C163.714 264.784 164.598 266.281 165.82 267.662ZM176.843 286.996C177.387 285.016 177.216 283.567 176.652 283.519C176.086 283.471 175.497 283.7 175.45 284.179C175.413 284.562 172.958 286.28 169.816 288.039C163.977 291.297 164.089 291.893 171.164 291.179C174.811 290.909 176.021 289.933 176.843 286.996ZM155.073 347.322C161.562 337.037 164.234 330.837 162.881 328.549C161.857 326.723 154.387 340.157 151.214 350.04C149.138 357.067 149.373 356.691 155.073 347.322ZM199.388 387.983C200.292 388.353 199.922 388.625 198.647 388.777C197.484 388.963 195.582 389.069 193.214 389.077C185.621 389.2 182.854 388.419 179.107 383.467C179.078 383.434 179.048 383.4 179.018 383.366C173.725 377.746 169.534 362.526 171.358 356.954C171.96 355.063 171.948 350.494 171.575 346.632C170.621 338.219 172.131 318.205 173.809 312.611C174.468 310.293 174.819 313.897 174.143 321.315C172.811 334.996 172.977 351.807 175.997 353.206C176.742 353.673 179.507 354.346 182.002 354.934C188.622 356.661 193.282 364.102 194.848 376.061C195.862 383.047 197.533 387.253 199.388 387.983ZM190.142 240.824C188.608 236.278 184.635 236.299 181.802 237.629C180.215 238.25 177.69 239.201 176.232 239.759C174.838 240.287 174.164 240.508 174.314 240.556C174.478 240.655 175.442 240.449 177.781 241.707C181.088 243.227 184.697 245.337 187.122 244.516C189.292 243.846 190.545 242.136 190.142 240.824ZM164.613 414.068C168.142 414.498 167.067 408.263 162.904 400.185C159.744 393.852 158.798 392.974 158.794 396.663C158.701 403.757 162.344 413.814 164.613 414.068ZM198.326 333.815C201.066 332.698 201.241 330.301 198.535 325.067C196.834 321.878 194.671 320.16 192.21 319.978C190.289 319.962 187.673 318.804 186.467 317.37C185.172 315.736 184.625 315.581 184.833 316.889C185.542 320.126 196.469 334.532 198.326 333.815ZM217.664 257.06C220.911 252.977 221.328 252.565 214.869 244.212C214.639 243.934 214.407 243.662 214.174 243.397C211.342 237.763 209.806 234.88 208.135 232.239C206.821 235.27 205.471 238.502 204.861 243.57C204.77 244.572 204.72 245.668 204.732 246.866C202.589 249.637 200.351 251.785 199.754 251.955C199.208 252.118 197.548 254.013 195.987 256.164C195.074 257.507 194.131 258.867 193.161 260.249C194.828 261.624 196.478 263.242 198.09 265.058C200.834 268.13 203.383 271.193 204.095 271.149C205.299 271.046 209.173 267.781 217.664 257.06ZM171.769 483.397C173.493 483.269 174.035 477.693 173.84 473.472C173.712 471.404 173.276 469.103 172.501 466.996C171.674 464.328 168.784 459.354 166.207 455.619C162.279 450.001 161.875 449.718 162.997 453.914C163.892 456.706 164.231 460.343 163.777 461.926C163.207 464.071 164.588 469.205 166.476 473.472C168.121 477.783 170.477 483.529 171.769 483.397ZM183.944 375.376C187.668 378.834 188.196 375.915 185.145 368.942C180.456 358.241 179.528 357.473 180.586 365.435C181.154 369.8 182.637 374.285 183.944 375.376ZM216.142 289.503C216.017 289.338 215.792 287.5 215.657 285.462C215.389 283.4 214.479 280.998 213.782 280.177C212.254 278.231 206.995 277.808 206.982 279.402C207.089 281.105 213.617 290.946 214.877 290.567C215.652 290.055 216.124 289.653 216.142 289.503ZM183.517 430.142C184.265 429.749 182.918 427.346 180.372 424.49C177.94 421.883 175.439 420.123 174.79 420.773C174.255 421.676 175.537 424.231 177.87 426.578C180.06 428.915 182.628 430.518 183.517 430.142ZM146.42 113.602C145.963 115.63 144.449 117.054 143.286 117.043C139.581 116.562 136.216 112.195 137.621 109.728C139.097 107.142 136.937 105.565 116.888 95.9848C112.745 93.9621 108.579 91.9287 104.447 89.9161C103.538 91.5218 102.629 93.1275 101.72 94.7331C100.242 97.3223 98.479 110.351 97.8945 123.726C96.8643 142.396 95.7809 148.803 92.9751 152.107C91.7708 153.545 90.5668 154.983 89.363 156.421C91.7996 156.77 94.2442 157.125 96.679 157.475C105.576 158.61 121.851 154.983 127.556 150.724C131.182 148.056 131.466 146.747 129.984 141.16C127.623 132.62 128.942 126.185 132.473 128.198C134.24 129.206 135.19 128.767 135.646 126.739C136.204 123.298 146.047 121.235 149.932 123.46C153.464 125.48 156.208 138.676 153.947 142.618C151.676 146.552 144.81 149.973 139.167 150.011C137.029 150.095 130.856 152.285 125.514 155.117C120.159 157.942 113.801 160.526 111.269 160.88C106.948 161.522 107.126 161.616 117.908 166.792C134.586 174.691 142.953 177.068 153.075 176.532C162.347 176.167 162.385 176.196 165.574 168.689C168.381 161.455 168.903 160.934 174.894 161.142C178.366 161.197 182.45 161.947 183.812 162.748C186.483 164.322 187.452 160.933 188.209 148.868C188.58 143.328 187.288 140.265 183.361 135.682C180.091 131.973 172.226 125.939 162.79 119.868C157.615 116.569 152.47 113.298 147.297 110.018C147.005 111.213 146.713 112.408 146.42 113.602ZM187.3 183.798C187.066 175.717 186.797 175.564 184.549 179.015C181.508 183.81 172.733 184.708 168.056 180.822C165.592 178.72 162.865 178.116 158.56 178.732C153.729 179.372 153.128 179.68 156.08 180.573C158.126 181.106 165.656 184.99 172.711 189.16C176.616 191.467 179.374 193.073 181.275 194.042C185.099 196.012 186.003 195.802 186.659 194.485C187.298 193.397 187.673 188.621 187.308 183.981C187.305 183.92 187.303 183.859 187.3 183.798ZM179.021 171.293C180.875 166.949 180.716 166.856 177.285 168.298C175.193 169.046 172.556 171.12 171.489 172.963C169.623 176.147 169.725 176.37 173.355 176.195C175.803 175.987 177.857 174.067 179.021 171.293ZM145.525 130.75C142.168 128.829 136.013 135.938 136.959 140.404C137.724 143.948 137.913 144.057 142.068 141.693C144.498 140.304 146.789 137.527 147.18 135.624C147.572 133.722 146.763 131.46 145.525 130.75ZM76.1336 63.6378C81.2164 62.923 89.4455 66.9196 93.8055 71.9928C97.5084 76.5316 96.2402 77.6075 88.7727 75.5066C85.1181 74.5826 77.9731 73.9702 72.6226 74.371C69.5456 74.6433 66.3922 74.8722 63.3462 75.1615C64.7519 73.347 66.159 71.5332 67.5676 69.7203C69.7186 66.6973 73.8585 63.9833 76.1336 63.6378ZM163.629 29.3155C169.901 27.8172 169.469 27.7357 170.102 32.0144C170.514 35.0241 169.382 36.1774 164.712 37.7677C157.784 40.0351 156.762 41.4141 157.086 48.2913C157.154 49.9623 157.222 51.6337 157.291 53.3054C158.215 51.8171 159.14 50.3288 160.064 48.8405C162.519 44.5202 176.169 37.9151 175.945 41.2195C175.95 42.0399 172.735 44.7812 168.672 47.3676C164.856 49.9321 161.403 53.5217 161.164 55.1821C160.72 58.0321 161.39 58.0851 169.612 56.889C174.464 56.2243 177.559 56.1927 176.391 56.9958C175.224 57.8009 174.883 60.875 175.713 63.9648C177.531 71.5434 174.418 76.1403 165.248 79.4026C155.451 82.9646 154.729 87.124 161.481 96.7049C164.328 100.786 167.15 104.041 167.48 103.902C167.978 103.859 170.987 101.495 174.134 98.8825C180.56 93.4058 185.452 91.963 182.964 96.2633C182.18 97.6139 182.657 101.327 184.151 104.483C187.023 110.565 184.905 116.722 179.285 119.047C176.787 120.063 176.736 121.017 179.109 123.864C180.547 125.844 181.291 127.424 180.723 127.587C179.96 127.637 178.719 126.59 177.583 125.278C176.614 124.061 173.916 121.847 171.42 120.41C168.322 118.462 166.878 115.995 166.148 111.158C165.677 107.45 163.452 102.738 161.38 100.572C157.276 96.2585 152.768 84.3766 154.781 82.91C155.557 82.3722 155.272 82.0461 154.459 82.2362C151.061 82.4228 147.041 75.8881 147.078 70.0319C146.84 64.6728 147.436 64.0309 152.979 61.3039C155.016 60.3396 157.053 59.3756 159.09 58.4116C158.314 56.609 157.535 54.8049 156.757 53.0021C155.502 49.8391 154.809 46.5075 155.369 45.5195C155.929 44.5324 155.32 43.5335 154.045 43.2989C150.437 43.0449 143.843 36.8601 144.963 34.8851C146.289 32.5366 148.079 33.5496 151.822 38.9365C152.817 40.3716 153.798 41.7989 154.787 43.2311C155.424 41.1443 156.061 39.0575 156.698 36.9709C158.157 31.923 159.736 30.3698 163.629 29.3155ZM302.859 272.294C305.448 268.586 305.427 268.545 302.624 269.394C301.082 269.941 298.581 271.475 297.059 273.157C295.489 274.656 294.799 275.286 295.04 275.597C295.225 275.863 295.958 275.916 297.255 276.013C297.722 276.007 298.277 275.836 298.865 275.537C300.241 274.916 301.802 273.674 302.859 272.294ZM224.977 122.64C225.307 122.107 225.298 121.664 224.892 121.297C223.923 120.505 221.077 119.514 214.948 117.664C203.284 114.084 201.026 114.767 198.154 122.124C196.759 125.747 196.315 128.939 196.839 129.247C197.544 129.66 202.515 128.457 207.928 126.706C213.265 124.909 219.186 123.642 221.161 123.666C222.043 123.728 222.885 123.658 223.569 123.503C224.21 123.248 224.788 122.966 224.977 122.64ZM140.601 61.62C140.627 60.3292 141.155 59.8134 141.655 60.5867C142.329 61.4586 142.453 64.956 142.014 68.6242C141.039 78.1922 141.255 79.4564 146.513 85.8783C149.178 89.0289 150.034 90.8243 148.439 89.9154C146.843 89.0054 143.897 85.5323 142.043 82.1927C140.012 78.7518 137.593 75.5821 136.529 74.9782C132.998 72.9733 133.336 66.9652 137.08 65.3355C139.095 64.6833 140.574 62.9105 140.601 61.62ZM245.678 126.714C245.763 122.25 244.03 120.491 237.96 119.314C231.021 117.96 229.166 119.026 227.985 123.768C226.595 129.385 226.699 129.603 231.585 129.89C244.117 130.513 245.833 130.52 245.678 126.714ZM331.819 364.906C333.297 367.853 324.277 366.747 320.139 363.303C317.727 361.443 309.163 334.266 309.751 330.803C309.864 330.322 313.185 329.818 317.148 329.654C326.909 329.337 331.298 336.308 330.995 351.445C330.903 357.667 331.143 363.711 331.819 364.906ZM165.317 70.6162C169.625 66.3735 167.765 63.8413 162.109 66.3366C159.811 67.4779 157.266 68.6426 156.382 68.9564C155.676 69.3711 156.138 69.7965 157.484 69.9096C159.256 70.1022 159.545 71.248 158.491 73.0979C156.562 76.8994 160.728 75.3521 165.317 70.6162ZM321.921 351.223C323.239 353.889 326.184 347.069 325.09 343.874C324.511 342.157 322.331 339.773 320.309 338.491C319.053 337.659 317.795 336.831 316.535 336.008C317.604 337.215 318.668 338.429 319.728 339.644C321.426 341.622 322.377 344.726 321.926 346.393C321.412 348.303 321.435 350.329 321.921 351.223ZM110.253 26.3409C111.116 32.6982 105.941 39.7189 102.251 37.634C101.025 36.9412 99.3841 34.3837 98.7404 31.901C97.6988 27.8888 98.3058 27.2533 103.627 24.0647C105.624 22.965 107.636 21.8735 109.662 20.7898C109.883 22.654 110.054 24.4896 110.253 26.3409ZM215.592 76.1008C218.673 69.1893 213.602 67.0698 207.597 72.9458C204.528 75.7625 204.433 76.3617 207.538 76.3541C209.374 76.4325 211.598 77.2293 212.381 78.34C213.349 79.558 214.521 78.7618 215.592 76.1008ZM198.935 37.0182C196.604 35.6843 195.763 36.3491 194.961 39.8143C194.297 42.2146 193.423 44.986 193.18 45.8284C192.023 48.2716 198.307 44.3463 200.071 41.267C201.236 39.645 200.73 38.0454 198.935 37.0182Z" fill="#004703"/>
</g>
<path d="M201.078 13.6338C203.857 18.3293 205.772 22.864 205.532 23.708C205.179 24.3237 206.183 24.2445 207.678 23.3026C210.137 21.9314 210.459 22.6075 209.885 28.1711C209.298 34.2186 208.59 34.9564 200.846 38.5293C192.445 42.3826 192.375 42.508 190.543 51.9293C188.281 62.9056 189.174 65.8714 195.063 69.2643C198.628 71.32 199.555 71.3649 199.543 68.8991C198.896 53.9401 202.003 40.6695 205.126 44.755C205.981 45.7381 205.781 47.7533 205.003 49.1068C203.583 51.5655 203.776 51.6761 208.625 50.704C211.32 50.1284 215.76 48.7597 218.313 47.6138C219.901 46.9475 221.506 46.2918 223.095 45.6274C223.314 48.7085 223.528 51.7875 223.763 54.8806C224.133 60.0222 223.762 66.5462 223.041 69.4134C222.255 72.4064 222.289 75.2219 223.211 75.763C225.56 77.138 231.183 74.686 233.134 71.3876C234.089 69.8085 237.321 67.9245 240.383 67.0994C245.666 65.7783 245.947 65.286 244.094 62.5338C241.661 58.9471 247.381 52.7646 249.738 55.9806C250.539 57.1175 249.823 58.8397 248.222 60.1992C244.721 62.8112 246.698 64.1419 251.878 63.2892C252.439 62.9882 253.232 62.7176 254.146 62.4134C257.134 61.3813 261.39 61.1045 263.13 61.8194C265.155 62.5402 265.366 63.167 263.477 63.5192C262.17 63.8927 259.07 67.6611 256.792 71.9212C253.629 78.1365 251.699 79.7862 246.746 80.4724C245.363 80.6999 243.183 80.5979 241.397 80.7704C229.964 79.6823 210.815 75.3474 206.853 71.9792C203.707 69.4997 202.815 69.4782 201.313 72.0532C199.38 75.3589 199.947 98.3304 202.048 99.563C202.777 99.9883 207.38 96.594 212.467 92.0065C220.998 84.5005 227.68 80.2016 226.065 83.3695C225.649 84.1145 221.056 87.9957 216.036 92.1249C210.979 96.2329 206.676 99.8009 206.622 99.9338C206.457 100.166 208.516 100.876 211.249 101.495C213.847 102.033 218.227 101.488 221.132 100.406C223.285 99.4503 226.634 99.1388 230.284 99.3033C235.746 99.047 244.132 101.369 249.207 104.539C252.383 106.507 257.015 108.625 259.992 109.566C267.578 111.873 266.816 112.918 257.31 115.447C254.438 116.217 251.618 117.038 248.833 117.895C251.919 119.479 255.054 121.138 258.278 122.929C263.475 125.929 268.062 129.164 267.738 129.635C267.468 129.964 262.718 128.372 257.521 126.708C252.076 124.857 245.574 124.229 242.771 124.804C235.822 126.214 224.654 123.906 217.699 120.293C217.243 120.05 216.792 119.795 216.349 119.53C210.406 115.983 208.641 115.774 201.754 117.648C199.204 118.4 196.548 119.092 194.02 119.86C193.364 123.369 192.756 126.906 192.116 130.426C189.922 142.139 190.007 148.128 192.319 144.549C193.498 142.552 198.915 142.458 203.545 143.9C204.793 144.267 206.051 144.792 207.138 145.439C209.078 146.59 213.316 150.439 216.293 153.948C218.216 156.134 220.125 158.336 222.013 160.56C219.196 160.045 216.391 159.569 213.595 159.121C207.189 158.294 203.786 156.81 198.177 152.853C198.095 152.795 198.013 152.736 197.93 152.677C190.455 147.384 190.313 147.49 189.59 151.179C189.119 153.19 189.275 160.439 189.648 167.078C189.651 167.134 189.654 167.191 189.658 167.247C190.142 174.145 189.916 180.283 189.477 181.016C188.172 183.229 191.951 184.579 201.916 185.797C208.427 186.721 210.96 186.402 211.013 184.557C211.006 179.978 217.095 172.573 223.6 169.91C228.706 167.864 229.761 167.915 229.151 170.253C228.61 171.778 228.855 175.06 229.597 177.529C230.35 179.997 230.486 183.85 229.627 185.882C228.865 188.164 228.535 190.077 228.827 190.313C229.263 190.677 233.033 191.997 236.729 193.579C236.99 193.697 237.236 193.81 237.469 193.918C240.367 195.049 241.817 197.372 241.272 197.829C240.8 198.533 238.344 197.623 234.577 197.868C233.67 197.99 232.818 198.195 232.269 198.696C226.216 199.006 218.538 196.668 215.407 192.686C213.306 190.173 210.442 188.896 204.065 188.172C199.366 187.681 193.647 187.008 191.537 186.729C187.953 186.223 188.038 186.593 191.049 191.25C192.867 194.185 197.305 199.62 200.896 203.565C202.952 205.96 204.896 208.345 206.577 210.635C211.055 211.438 215.612 212.731 217.665 212.113C215.927 208.755 217.23 208.439 218.237 208.736C219.365 209.093 220.757 210.252 222.164 211.688C225.06 214.698 227.789 218.376 231.623 223.987C232.307 224.652 232.984 225.344 233.654 226.06C237.991 226.834 242.355 227.969 246.703 229.402C255.171 232.287 264.027 238.402 271.343 247.192C275.104 251.597 278.702 256.222 282.169 260.961C283.831 259.07 285.471 257.134 287.086 255.143C293.528 247.479 299.607 244.576 308.556 247.818C315.426 250.167 318.771 255.039 313.941 255.207C312.807 255.255 311.856 256.305 311.896 257.554C311.917 258.202 311.323 260.121 310.36 262.358C309.836 263.772 309.192 265.295 308.476 266.756C303.876 275.86 297.917 275.112 288.318 266.835C285.484 264.586 282.943 263.161 281.666 262.806C281.242 262.697 280.956 262.697 280.843 262.819C280.805 262.862 280.787 262.919 280.788 262.99C280.8 266.106 285.353 271.447 294.688 282.822C297.615 286.442 300.444 290.182 303.184 294.009C305.324 292.782 307.457 291.499 309.579 290.166C317.128 285.214 325.568 287.869 333.774 299.648C335.471 302.041 337.14 304.453 338.781 306.881C337.034 307.258 335.287 307.621 333.54 307.969C330.686 308.6 325.348 310.098 321.92 311.285C315.684 313.281 315.231 312.637 305.824 300.866C300.424 293.956 293.318 285.567 290.379 281.667C285.879 276.135 284.728 275.694 284.506 278.743C284.006 285.102 289.536 294.528 299.565 306.526C304.771 313.052 307.861 318.387 306.763 318.114C305.518 317.823 305.602 319.334 307.202 321.73C310.711 327.071 310.855 336.109 307.59 347.166C306.639 350.256 305.682 353.28 304.73 356.238C303.732 354.551 302.733 352.858 301.732 351.161C300.094 348.345 298.226 343.362 297.703 340.158C296.531 333.602 300.197 316.684 303.033 317.233C303.858 317.435 301.482 313.351 297.319 308.291C293.17 303.223 288.862 297.42 287.893 295.365C285.329 289.94 285.597 292.439 285.842 309.652C285.93 326.587 286.27 339.777 288.17 350.241C289.942 359.072 287.397 359.524 284.876 350.745C282.985 344.535 281.981 345.449 279.417 355.138C278.081 360.552 277.389 359.098 276.635 348.087C276.187 340.209 276.64 336.325 278.856 331.33C283.109 320.148 285.959 318.43 282.014 277.838C281.338 272.834 279.799 267.709 277.495 262.871C270.635 248.991 257.444 237.228 243.785 233.849C239.17 232.553 234.116 231.105 232.724 230.354C231.959 229.927 230.074 227.898 227.488 225.506C223.595 219.65 220.203 214.626 216.921 211.558C214.692 209.423 212.363 209.567 215.12 214.451C214.022 215.097 212.165 214.699 211.263 214.862C210.288 214.953 209.973 215.275 210.227 215.815C210.729 216.948 211.485 218.134 211.238 218.018C208.659 215.214 208.193 213.94 208.073 213.538C208 213.139 208.438 213.562 209.062 214.444C210.382 216.321 212.267 219.569 215.373 225.278C215.984 226.396 216.637 227.639 217.444 229.196C220.518 232.681 222.834 237.55 223.123 239.086C223.925 242.507 216.052 252.933 212.725 253.096C211.875 253.168 210.395 254.183 209.625 255.436C208.325 257.33 208.908 257.735 212.355 258.522C214.646 258.884 217.259 260.249 218.142 261.399C218.52 261.875 218.91 262.709 219.28 263.781C221.182 267.954 221.674 277.547 220.323 277.428C218.527 277.216 217.9 284.021 219.391 286.69C221.893 291.087 218.929 290.019 212.654 284.844C203.541 277.577 200.4 270.951 202.725 264.238C202.746 264.17 202.766 264.104 202.785 264.038C203.498 260.633 203.104 259.288 200.78 257.305C199.144 255.945 196.817 253.397 195.483 251.699C194.139 249.847 192.535 248.771 191.834 248.873C190.21 249.157 187.943 255.156 185.235 264.313C182.584 269.792 179.059 277.434 178.07 282.125C177.491 285.037 177.782 288.737 178.928 291.693C180.723 296.087 181.447 296.579 188.29 297.396C192.528 298.032 196.974 299.546 199.17 301.208C203.157 304.494 207.799 314.403 206.806 317.526C206.419 318.783 206.712 323.054 207.181 327.122C207.578 329.582 207.958 332.069 208.328 334.58C205.669 333.424 203.011 332.27 200.352 331.117C188.043 326.182 183.667 317.711 180.299 302.203C179.334 297.928 178.236 293.881 176.981 290.125C175.8 292.308 174.556 294.574 173.253 296.919C168.215 306.127 164.415 320.529 161.482 344.567C160.456 354.093 160.05 360.02 160.536 365.421C160.687 370.775 161.599 375.479 163.501 381.787C168.206 396.438 169.191 396.515 176.413 397.72C183.757 398.759 184.038 399.608 189.246 411.298C192.233 417.827 195.829 423.135 196.957 423.227C198.797 423.374 198.76 423.8 196.792 425.404C193.449 428.421 180.166 426.989 174.917 422.879C172.503 420.858 167.75 414.373 164.751 408.086C162.935 404.341 161.184 400.487 159.519 396.492C159.457 399.538 159.448 402.529 159.48 405.479C159.467 410.298 160.934 417.543 162.78 421.485C163.831 423.874 164.904 426.23 165.996 428.552C164.758 427.078 163.528 425.582 162.306 424.072C158.783 419.757 158.762 419.745 158.337 425.946C157.991 431.404 158.551 432.117 162.94 432.348C173.451 432.944 178.843 443.434 179.451 460.472C179.613 464.315 179.402 469.659 180.297 477.747C181.183 487.052 185.253 499.972 192.326 509.815C186.655 506.227 181.087 501.184 176.414 495.568C165.96 483.121 162.147 469.647 159.953 460.472C157.495 451.339 156.233 438.636 157.322 415.215C157.836 406.021 156.625 393.743 156.886 372.178C156.949 369.686 157.066 367.132 157.244 364.526C157.397 357.613 157.647 350.984 157.891 344.632C156.369 347.118 154.842 349.678 153.314 352.326C151.237 355.812 149.287 359.701 148.247 362.081C147.9 362.943 147.641 363.637 147.484 364.112C146.763 366.906 146.413 367.145 146.716 364.247C146.734 363.77 146.932 362.933 147.286 361.82C148.197 359.052 150.433 354.299 152.981 349.972C157.638 342.445 159.403 338.463 159.929 333.618C160.827 327.247 160.813 327.199 154.933 337.527C149.852 346.857 146.81 354.49 145.575 361.355C144.089 368.869 144.361 374.907 145.826 381.187C148.585 393.399 150.019 411.753 148.357 422.108C147.417 427.65 147.218 427.78 142.819 418.202C137.791 407.365 136.367 387.595 140.79 372.54C144.549 360.207 143.605 359.45 137.942 370.958C135.722 375.614 131.648 381.236 128.872 383.177C123.857 387.073 107.634 391.324 106.803 389.106C105.87 387.044 121.427 363.763 126.984 359.476C128.195 358.58 129.718 357.898 131.309 357.479C133.455 357.154 135.755 357.236 137.587 357.74C139.412 358.243 141.237 358.745 143.062 359.247C144.753 353.105 146.491 347.323 148.205 341.843C151.078 332.649 155.454 322.714 158.119 318.682C160.7 314.484 165.397 306.044 168.117 300.347C169.859 296.822 171.484 293.482 172.977 290.324C171.222 291.645 169.441 292.986 167.634 294.357C164.669 296.562 160.049 300.619 157.644 303.525C151.848 310.119 145.041 312.538 131.935 311.511C126.378 311.139 121.675 310.443 121.604 310.206C121.525 309.609 138.157 297.62 143.678 294.865C145.641 293.785 152.359 292.092 158.496 291.188C173.693 288.817 173.764 288.539 174.947 283.211C175.742 279.396 175.341 278.961 173.271 279.285C171.788 279.501 168.259 279.798 165.498 279.841C162.573 279.988 157.406 281.863 152.789 284.471C141.739 291.213 136.572 288.621 128.539 277.88C124.12 272.661 123.864 272.237 128.361 273.66C130.104 274.324 134.645 274.838 138.295 274.711C144.396 274.62 145.535 274.719 150.111 277.151C154.916 279.813 155.459 280.025 159.817 278.574C168.304 275.759 175.09 271.051 180.476 264.387C182.408 260.199 184.137 255.731 185.582 251.351C185.988 250.145 184.392 251.771 181.987 255.16C179.44 258.575 176.269 262.045 175.005 262.593C170.924 264.145 163.68 263.655 160.642 261.962C156.62 259.631 152.656 255.436 154.994 254.998C155.964 254.745 156.59 254.069 156.514 253.591C156.449 253.076 157.613 251.014 159.33 250.42C159.688 250.279 160.06 250.184 160.449 250.133C158.231 241.84 158.275 238.986 158.168 236.376C160.454 237.946 162.819 240.135 166.435 245.419C166.836 246.008 167.28 246.709 167.747 247.452C170.355 246.568 172.94 247.182 173.716 248.295C175.227 249.993 173.722 257.699 171.317 259.217C169.663 259.962 158.355 256.646 158.244 255.899C158.195 255.434 157.596 255.219 156.751 255.32C153.792 255.634 157.714 257.485 162.924 259.157C171.871 262.166 176.197 261.623 180.309 255.53C182.365 252.611 186.851 247.707 190.425 244.309C193.894 240.923 196.484 237.989 196.434 237.841C196.38 237.691 193.727 238.704 190.427 240.016C186.613 241.519 184.045 242.094 181.502 242.399C176.88 236.631 172.545 229.36 169.051 229.438C168.393 229.715 167.91 230.649 168.395 233.272C169.087 235.966 169.867 240.19 177.074 249.406C177.351 249.944 177.579 250.414 177.762 250.83C178.295 249.713 178.804 248.563 179.288 247.372C179.207 247.113 179.13 246.857 179.056 246.603C177.403 241.604 179.515 234.843 182.51 231.058C185.574 226.547 187.794 222.043 190.259 221.215C192.661 220.299 194.558 222.064 195.537 227.015C196.252 230.843 197.685 234.28 198.571 233.567C199.462 232.919 200.015 228.596 201.615 224.085C202.602 221.256 203.262 219.222 203.61 217.531C203.791 216.702 203.895 215.976 204.024 215.533C204.176 215.12 204.252 214.893 204.999 215.863C205.57 216.572 206.454 217.91 208.774 220.281C209.521 220.41 207.853 218.224 206.356 216.434C204.769 214.534 202.944 212.491 201.104 210.391C197.391 206.175 193.617 201.699 189.28 196.326C185.059 191.046 182.417 188.039 178.847 185.092C175.329 182.086 171.222 179.549 163.573 175.068C154.871 170.135 145.949 165.804 143.585 165.423C140.098 165.051 141.071 165.769 148.49 170.228C153.373 173.055 157.744 176.263 157.861 177.317C158.026 178.236 156.97 178.44 155.573 177.626C150.404 174.617 151.444 178.337 156.955 182.049C162.255 185.645 162.277 185.662 157.345 184.909C152.899 184.283 151.391 183.231 144.933 176.369C133.614 164.232 114.061 154.83 87.5088 148.735C69.5983 144.611 66.1088 143.456 53.3822 136.259C45.6402 131.882 36.3438 125.979 32.7421 123.291C27.5174 119.361 25.2892 118.264 22.6144 118.87C17.1252 119.842 16.5168 118.517 19.8396 113.058C22.5199 108.704 23.7961 108.122 29.1583 109.362C37.926 111.386 45.1124 115.77 51.5008 123.13C58.0099 130.559 63.8647 134.191 77.4639 138.958C80.7257 140.044 83.9836 141.13 87.2526 142.223C88.2785 139.868 89.3043 137.512 90.3302 135.156C93.3038 128.683 96.3623 107.249 95.0792 102.932C94.6012 101.682 92.4396 98.9889 89.7603 96.6573C87.3699 94.3257 84.623 89.6743 83.9328 86.3493C83.1717 83.1468 80.8839 78.918 78.7077 77.0362C75.2162 74.0853 75.7396 74.0544 84.282 77.0888C89.337 78.8045 94.7128 81.3569 95.8981 82.5168C99.6126 86.2499 102.498 74.9971 99.9768 67.0475C98.6643 63.2071 97.9936 59.4037 98.3443 58.7861C98.7639 58.045 98.3958 56.2062 97.4843 54.5496C96.4677 52.9967 95.8053 46.4266 95.6623 39.9875C95.8351 33.5636 94.7396 26.4226 93.2151 24.0939C90.7267 19.9162 90.7069 12.0794 93.1635 11.8372C93.6979 11.6501 94.7079 14.9922 95.095 19.1238C95.8831 24.7858 96.603 26.3337 98.6159 25.6778C100.628 25.0214 100.853 25.4752 99.7349 27.452C98.9036 28.9389 98.092 32.3925 97.9639 35.0914C97.7618 40.8466 101.275 41.2012 104.35 35.7652C107.033 31.0855 124.147 30.4854 131.783 34.8107C137.993 38.3277 138.321 39.821 134.671 44.6041C132.316 47.5114 119.125 47.2151 109.738 44.0287C104.874 42.2563 100.221 41.4207 99.2764 41.8654C97.4809 42.9703 98.5307 55.9559 100.575 58.5796C101.244 59.4468 104.44 61.2542 107.646 62.5788C112.079 64.2717 115.375 64.1797 119.686 62.3803C123.023 61.0079 125.076 60.7043 124.694 61.7926C124.064 62.9041 121.629 64.2972 119.201 64.8797C115.014 66.097 115.048 66.4422 118.352 71.7403C120.178 74.7333 122.444 78.9568 123.586 81.0738C125.076 84.2129 129.017 86.7352 154.334 100.712C177.824 113.838 183.853 117.723 186.382 121.156C189.066 125.019 189.461 125.253 190.491 123.059C198.336 108.399 200.563 74.2251 193.816 70.184C186.51 65.976 185.924 62.0429 189.831 44.4865C190.355 42.3329 189.149 37.3899 187.174 33.809C183.435 27.0953 183.576 26.8507 189.586 15.8981C191.696 12.199 193.806 8.49997 195.916 4.80093C197.637 7.74388 199.356 10.6871 201.078 13.6338ZM136.905 427.537C136.541 434.939 134.848 438.516 125.199 459.223C125.005 459.641 124.811 460.057 124.618 460.472C123.355 463.838 122.08 468.682 121.34 475.584C120.296 468.823 119.778 463.893 119.253 460.472C118.774 457.902 118.31 455.296 117.863 452.674C114.584 434.313 114.945 424.251 118.258 412.201C120.563 403.761 126.766 395.982 130.564 396.52C131.832 396.684 133.737 394.156 135.089 390.94C137.285 385.237 137.254 385.28 135.722 392.455C134.666 396.57 134.67 404.532 135.564 410.102C136.589 415.474 137.155 423.096 136.905 427.537ZM163.566 294.661C166.705 292.966 168.883 291.394 168.472 291.285C167.922 291.141 163.182 291.865 157.696 292.99C154.379 293.578 151.053 294.162 147.713 294.756C149.375 295.309 151.037 295.862 152.699 296.417C156.5 297.567 159.346 297.027 163.566 294.661ZM124.488 441.562C127.565 432.222 132.787 407.886 131.258 407.549C130.553 407.472 129.678 410.338 129.38 413.724C129.055 417.371 128.091 420.894 127.029 421.849C125.81 423.047 125.713 422.279 126.488 419.487C127.268 416.695 126.982 415.091 125.708 414.983C123.253 414.661 122.269 418.29 121.99 439.752C121.981 442.812 121.998 445.834 122.037 448.842C122.839 446.42 123.655 443.996 124.488 441.562ZM165.82 254.662C166.874 255.793 167.391 256.509 167.581 256.215C167.769 255.955 167.63 254.623 167.288 252.695C166.893 250.479 166.551 249.762 166.107 249.401C165.661 249.067 165.093 249.153 164.2 249.384C163.31 249.636 163.063 250.038 163.39 250.924C163.714 251.784 164.598 253.281 165.82 254.662ZM176.843 273.996C177.387 272.016 177.216 270.567 176.652 270.519C176.086 270.471 175.497 270.7 175.45 271.179C175.413 271.562 172.958 273.28 169.816 275.039C163.977 278.297 164.089 278.893 171.164 278.179C174.811 277.909 176.021 276.933 176.843 273.996ZM155.073 334.322C161.562 324.037 164.234 317.837 162.881 315.549C161.857 313.723 154.387 327.157 151.214 337.04C149.138 344.067 149.373 343.691 155.073 334.322ZM199.388 374.983C200.292 375.353 199.922 375.625 198.647 375.777C197.484 375.963 195.582 376.069 193.214 376.077C185.621 376.2 182.854 375.419 179.107 370.467C179.078 370.434 179.048 370.4 179.018 370.366C173.725 364.746 169.534 349.526 171.358 343.954C171.96 342.063 171.948 337.494 171.575 333.632C170.621 325.219 172.131 305.205 173.809 299.611C174.468 297.293 174.819 300.897 174.143 308.315C172.811 321.996 172.977 338.807 175.997 340.206C176.742 340.673 179.507 341.346 182.002 341.934C188.622 343.661 193.282 351.102 194.848 363.061C195.862 370.047 197.533 374.253 199.388 374.983ZM190.142 227.824C188.608 223.278 184.635 223.299 181.802 224.629C180.215 225.25 177.69 226.201 176.232 226.759C174.838 227.287 174.164 227.508 174.314 227.556C174.478 227.655 175.442 227.449 177.781 228.707C181.088 230.227 184.697 232.337 187.122 231.516C189.292 230.846 190.545 229.136 190.142 227.824ZM164.613 401.068C168.142 401.498 167.067 395.263 162.904 387.185C159.744 380.852 158.798 379.974 158.794 383.663C158.701 390.757 162.344 400.814 164.613 401.068ZM198.326 320.815C201.066 319.698 201.241 317.301 198.535 312.067C196.834 308.878 194.671 307.16 192.21 306.978C190.289 306.962 187.673 305.804 186.467 304.37C185.172 302.736 184.625 302.581 184.833 303.889C185.542 307.126 196.469 321.532 198.326 320.815ZM217.664 244.06C220.911 239.977 221.328 239.565 214.869 231.212C214.639 230.934 214.407 230.662 214.174 230.397C211.342 224.763 209.806 221.88 208.135 219.239C206.821 222.27 205.471 225.502 204.861 230.57C204.77 231.572 204.72 232.668 204.732 233.866C202.589 236.637 200.351 238.785 199.754 238.955C199.208 239.118 197.548 241.013 195.987 243.164C195.074 244.507 194.131 245.867 193.161 247.249C194.828 248.624 196.478 250.242 198.09 252.058C200.834 255.13 203.383 258.193 204.095 258.149C205.299 258.046 209.173 254.781 217.664 244.06ZM171.769 470.397C173.493 470.269 174.035 464.693 173.84 460.472C173.712 458.404 173.276 456.103 172.501 453.996C171.674 451.328 168.784 446.354 166.207 442.619C162.279 437.001 161.875 436.718 162.997 440.914C163.892 443.706 164.231 447.343 163.777 448.926C163.207 451.071 164.588 456.205 166.476 460.472C168.121 464.783 170.477 470.529 171.769 470.397ZM183.944 362.376C187.668 365.834 188.196 362.915 185.145 355.942C180.456 345.241 179.528 344.473 180.586 352.435C181.154 356.8 182.637 361.285 183.944 362.376ZM216.142 276.503C216.017 276.338 215.792 274.5 215.657 272.462C215.389 270.4 214.479 267.998 213.782 267.177C212.254 265.231 206.995 264.808 206.982 266.402C207.089 268.105 213.617 277.946 214.877 277.567C215.652 277.055 216.124 276.653 216.142 276.503ZM183.517 417.142C184.265 416.749 182.918 414.346 180.372 411.49C177.94 408.883 175.439 407.123 174.79 407.773C174.255 408.676 175.537 411.231 177.87 413.578C180.06 415.915 182.628 417.518 183.517 417.142ZM146.42 100.602C145.963 102.63 144.449 104.054 143.286 104.043C139.581 103.562 136.216 99.1948 137.621 96.7282C139.097 94.1424 136.937 92.5655 116.888 82.9848C112.745 80.9621 108.579 78.9287 104.447 76.9161C103.538 78.5218 102.629 80.1275 101.72 81.7331C100.242 84.3223 98.479 97.3514 97.8945 110.726C96.8643 129.396 95.7809 135.803 92.9751 139.107C91.7708 140.545 90.5668 141.983 89.363 143.421C91.7996 143.77 94.2442 144.125 96.679 144.475C105.576 145.61 121.851 141.983 127.556 137.724C131.182 135.056 131.466 133.747 129.984 128.16C127.623 119.62 128.942 113.185 132.473 115.198C134.24 116.206 135.19 115.767 135.646 113.739C136.204 110.298 146.047 108.235 149.932 110.46C153.464 112.48 156.208 125.676 153.947 129.618C151.676 133.552 144.81 136.973 139.167 137.011C137.029 137.095 130.856 139.285 125.514 142.117C120.159 144.942 113.801 147.526 111.269 147.88C106.948 148.522 107.126 148.616 117.908 153.792C134.586 161.691 142.953 164.068 153.075 163.532C162.347 163.167 162.385 163.196 165.574 155.689C168.381 148.455 168.903 147.934 174.894 148.142C178.366 148.197 182.45 148.947 183.812 149.748C186.483 151.322 187.452 147.933 188.209 135.868C188.58 130.328 187.288 127.265 183.361 122.682C180.091 118.973 172.226 112.939 162.79 106.868C157.615 103.569 152.47 100.298 147.297 97.0176C147.005 98.2126 146.713 99.4076 146.42 100.602ZM187.3 170.798C187.066 162.717 186.797 162.564 184.549 166.015C181.508 170.81 172.733 171.708 168.056 167.822C165.592 165.72 162.865 165.116 158.56 165.732C153.729 166.372 153.128 166.68 156.08 167.573C158.126 168.106 165.656 171.99 172.711 176.16C176.616 178.467 179.374 180.073 181.275 181.042C185.099 183.012 186.003 182.802 186.659 181.485C187.298 180.397 187.673 175.621 187.308 170.981C187.305 170.92 187.303 170.859 187.3 170.798ZM179.021 158.293C180.875 153.949 180.716 153.856 177.285 155.298C175.193 156.046 172.556 158.12 171.489 159.963C169.623 163.147 169.725 163.37 173.355 163.195C175.803 162.987 177.857 161.067 179.021 158.293ZM145.525 117.75C142.168 115.829 136.013 122.938 136.959 127.404C137.724 130.948 137.913 131.057 142.068 128.693C144.498 127.304 146.789 124.527 147.18 122.624C147.572 120.722 146.763 118.46 145.525 117.75ZM76.1336 50.6378C81.2164 49.923 89.4455 53.9196 93.8055 58.9928C97.5084 63.5316 96.2402 64.6075 88.7727 62.5066C85.1181 61.5826 77.9731 60.9702 72.6226 61.371C69.5456 61.6433 66.3922 61.8722 63.3462 62.1615C64.7519 60.347 66.159 58.5332 67.5676 56.7203C69.7186 53.6973 73.8585 50.9833 76.1336 50.6378ZM163.629 16.3155C169.901 14.8172 169.469 14.7357 170.102 19.0144C170.514 22.0241 169.382 23.1774 164.712 24.7677C157.784 27.0351 156.762 28.4141 157.086 35.2913C157.154 36.9623 157.222 38.6337 157.291 40.3054C158.215 38.8171 159.14 37.3288 160.064 35.8405C162.519 31.5202 176.169 24.9151 175.945 28.2195C175.95 29.0399 172.735 31.7812 168.672 34.3676C164.856 36.9321 161.403 40.5217 161.164 42.1821C160.72 45.0321 161.39 45.0851 169.612 43.889C174.464 43.2243 177.559 43.1927 176.391 43.9958C175.224 44.8009 174.883 47.875 175.713 50.9648C177.531 58.5434 174.418 63.1403 165.248 66.4026C155.451 69.9646 154.729 74.124 161.481 83.7049C164.328 87.7856 167.15 91.0406 167.48 90.9021C167.978 90.8592 170.987 88.4946 174.134 85.8825C180.56 80.4058 185.452 78.963 182.964 83.2633C182.18 84.6139 182.657 88.3269 184.151 91.4829C187.023 97.5654 184.905 103.722 179.285 106.047C176.787 107.063 176.736 108.017 179.109 110.864C180.547 112.844 181.291 114.424 180.723 114.587C179.96 114.637 178.719 113.59 177.583 112.278C176.614 111.061 173.916 108.847 171.42 107.41C168.322 105.462 166.878 102.995 166.148 98.1576C165.677 94.4499 163.452 89.738 161.38 87.5717C157.276 83.2585 152.768 71.3766 154.781 69.91C155.557 69.3722 155.272 69.0461 154.459 69.2362C151.061 69.4228 147.041 62.8881 147.078 57.0319C146.84 51.6728 147.436 51.0309 152.979 48.3039C155.016 47.3396 157.053 46.3756 159.09 45.4116C158.314 43.609 157.535 41.8049 156.757 40.0021C155.502 36.8391 154.809 33.5075 155.369 32.5195C155.929 31.5324 155.32 30.5335 154.045 30.2989C150.437 30.0449 143.843 23.8601 144.963 21.8851C146.289 19.5366 148.079 20.5496 151.822 25.9365C152.817 27.3716 153.798 28.7989 154.787 30.2311C155.424 28.1443 156.061 26.0575 156.698 23.9709C158.157 18.923 159.736 17.3698 163.629 16.3155ZM302.859 259.294C305.448 255.586 305.427 255.545 302.624 256.394C301.082 256.941 298.581 258.475 297.059 260.157C295.489 261.656 294.799 262.286 295.04 262.597C295.225 262.863 295.958 262.916 297.255 263.013C297.722 263.007 298.277 262.836 298.865 262.537C300.241 261.916 301.802 260.674 302.859 259.294ZM224.977 109.64C225.307 109.107 225.298 108.664 224.892 108.297C223.923 107.505 221.077 106.514 214.948 104.664C203.284 101.084 201.026 101.767 198.154 109.124C196.759 112.747 196.315 115.939 196.839 116.247C197.544 116.66 202.515 115.457 207.928 113.706C213.265 111.909 219.186 110.642 221.161 110.666C222.043 110.728 222.885 110.658 223.569 110.503C224.21 110.248 224.788 109.966 224.977 109.64ZM140.601 48.62C140.627 47.3292 141.155 46.8134 141.655 47.5867C142.329 48.4586 142.453 51.956 142.014 55.6242C141.039 65.1922 141.255 66.4564 146.513 72.8783C149.178 76.0289 150.034 77.8243 148.439 76.9154C146.843 76.0054 143.897 72.5323 142.043 69.1927C140.012 65.7518 137.593 62.5821 136.529 61.9782C132.998 59.9733 133.336 53.9652 137.08 52.3355C139.095 51.6833 140.574 49.9105 140.601 48.62ZM245.678 113.714C245.763 109.25 244.03 107.491 237.96 106.314C231.021 104.96 229.166 106.026 227.985 110.768C226.595 116.385 226.699 116.603 231.585 116.89C244.117 117.513 245.833 117.52 245.678 113.714ZM331.819 351.906C333.297 354.853 324.277 353.747 320.139 350.303C317.727 348.443 309.163 321.266 309.751 317.803C309.864 317.322 313.185 316.818 317.148 316.654C326.909 316.337 331.298 323.308 330.995 338.445C330.903 344.667 331.143 350.711 331.819 351.906ZM165.317 57.6162C169.625 53.3735 167.765 50.8413 162.109 53.3366C159.811 54.4779 157.266 55.6426 156.382 55.9564C155.676 56.3711 156.138 56.7965 157.484 56.9096C159.256 57.1022 159.545 58.248 158.491 60.0979C156.562 63.8994 160.728 62.3521 165.317 57.6162ZM321.921 338.223C323.239 340.889 326.184 334.069 325.09 330.874C324.511 329.157 322.331 326.773 320.309 325.491C319.053 324.659 317.795 323.831 316.535 323.008C317.604 324.215 318.668 325.429 319.728 326.644C321.426 328.622 322.377 331.726 321.926 333.393C321.412 335.303 321.435 337.329 321.921 338.223ZM110.253 13.3409C111.116 19.6982 105.941 26.7189 102.251 24.634C101.025 23.9412 99.3841 21.3837 98.7404 18.901C97.6988 14.8888 98.3058 14.2533 103.627 11.0647C105.624 9.96499 107.636 8.87349 109.662 7.78975C109.883 9.65395 110.054 11.4896 110.253 13.3409ZM215.592 63.1008C218.673 56.1893 213.602 54.0698 207.597 59.9458C204.528 62.7625 204.433 63.3617 207.538 63.3541C209.374 63.4325 211.598 64.2293 212.381 65.34C213.349 66.558 214.521 65.7618 215.592 63.1008ZM198.935 24.0182C196.604 22.6843 195.763 23.3491 194.961 26.8143C194.297 29.2146 193.423 31.986 193.18 32.8284C192.023 35.2716 198.307 31.3463 200.071 28.267C201.236 26.645 200.73 25.0454 198.935 24.0182Z" fill="#067C0B"/>
<defs>
<filter id="filter0_f_0_1" x="-0.00019455" y="0.000782013" width="356.581" height="540.614" filterUnits="userSpaceOnUse" color-interpolation-filters="sRGB">
<feFlood flood-opacity="0" result="BackgroundImageFix"/>
<feBlend mode="normal" in="SourceGraphic" in2="BackgroundImageFix" result="shape"/>
<feGaussianBlur stdDeviation="8.9" result="effect1_foregroundBlur_0_1"/>
</filter>
</defs>
</svg>
